<?xml version="1.0" encoding="UTF-8" standalone="no"?>
<svg
   xmlns:dc="http://purl.org/dc/elements/1.1/"
   xmlns:cc="http://creativecommons.org/ns#"
   xmlns:rdf="http://www.w3.org/1999/02/22-rdf-syntax-ns#"
   xmlns:svg="http://www.w3.org/2000/svg"
   xmlns="http://www.w3.org/2000/svg"
   xmlns:sodipodi="http://sodipodi.sourceforge.net/DTD/sodipodi-0.dtd"
   xmlns:inkscape="http://www.inkscape.org/namespaces/inkscape"
   version="1.1"
   id="svg46"
   width="1983.0508"
   height="402.71185"
   viewBox="0 0 1983.0508 402.71185"
   sodipodi:docname="downlink_earth_sat_only.svg"
   inkscape:version="1.0.2-2 (e86c870879, 2021-01-15)">
  <metadata
     id="metadata52">
    <rdf:RDF>
      <cc:Work
         rdf:about="">
        <dc:format>image/svg+xml</dc:format>
        <dc:type
           rdf:resource="http://purl.org/dc/dcmitype/StillImage" />
        <dc:title></dc:title>
      </cc:Work>
    </rdf:RDF>
  </metadata>
  <defs
     id="defs50" />
  <sodipodi:namedview
     pagecolor="#ffffff"
     bordercolor="#333f50"
     borderopacity="1"
     objecttolerance="10"
     gridtolerance="10"
     guidetolerance="10"
     inkscape:pageopacity="0"
     inkscape:pageshadow="2"
     inkscape:window-width="1380"
     inkscape:window-height="784"
     id="namedview48"
     showgrid="false"
     inkscape:zoom="0.3986511"
     inkscape:cx="1024.5692"
     inkscape:cy="390.76005"
     inkscape:window-x="1968"
     inkscape:window-y="144"
     inkscape:window-maximized="0"
     inkscape:current-layer="g54" />
  <g
     inkscape:groupmode="layer"
     inkscape:label="Image"
     id="g54">
    <path
       style="fill:#333f50;stroke-width:2.0339"
       d="m 902.26402,388.28733 c -47.61765,-7.63351 -89.24387,-38.33976 -109.89146,-81.06317 -20.00453,-41.3928 -20.00453,-82.675 0,-124.0678 17.9159,-37.07108 49.88955,-64.08628 90.56943,-76.52397 21.82548,-6.673053 59.53045,-6.673053 81.35593,0 52.22918,15.96883 92.15948,58.98053 102.58938,110.50602 6.3419,31.33037 2.5153,60.00986 -12.02,90.08575 -23.7048,49.04942 -70.30842,79.31682 -125.14565,81.27768 -11.74576,0.42 -24.1017,0.32347 -27.45763,-0.21451 z m 45.71052,-6.95915 c 16.51349,-2.67919 35.99219,-10.36631 52.35036,-20.65969 14.3831,-9.05054 37.956,-33.5088 44.9526,-46.64095 l 4.7083,-8.83728 -5.7253,6.37061 c -3.1489,3.50386 -10.7592,12.57539 -16.9117,20.15897 -13.4584,16.58867 -36.6102,32.686 -36.6102,25.45486 0,-1.05262 1.01896,-2.54363 2.26437,-3.31332 1.2454,-0.76971 4.10787,-5.62881 6.36106,-10.79801 2.25317,-5.16919 7.34737,-14.71619 11.32037,-21.21553 6.5858,-10.77345 7.0168,-12.38994 4.8803,-18.30508 -1.2889,-3.56846 -1.8146,-8.50591 -1.1683,-10.97213 0.9338,-3.56308 0.1259,-4.74738 -3.9332,-5.76616 -2.8097,-0.70518 -6.7954,-0.39865 -8.8572,0.68119 -6.94603,3.63781 -16.48955,0.42336 -24.25178,-8.16852 -6.44251,-7.13109 -7.19695,-9.04475 -6.12514,-15.53662 0.6723,-4.07211 1.48472,-10.51556 1.80539,-14.31879 0.4249,-5.03947 2.62901,-8.68357 8.12662,-13.43587 4.14899,-3.58652 7.54361,-7.42615 7.54361,-8.53253 0,-4.27214 7.61367,-8.47812 19.1871,-10.59948 14.9031,-2.73164 14.0085,-2.78032 12.677,0.6897 -0.6703,1.74669 1.6179,4.98514 5.7483,8.13559 7.7942,5.9449 11.2012,6.60887 11.2012,2.18298 0,-3.97098 3.3785,-3.92135 5.6191,0.0826 2.8081,5.01771 8.6181,1.3874 8.6181,-5.38493 0,-4.40668 -0.9618,-5.88409 -3.8305,-5.88409 -2.1069,0 -4.2684,-1.67396 -4.8034,-3.71991 -1.1871,-4.5396 3.4657,-11.43755 6.4647,-9.58406 1.1931,0.73735 2.1401,0.14258 2.1046,-1.32175 -0.1036,-4.26124 -5.163,-9.78105 -8.9653,-9.78105 -2.8086,0 -3.2391,1.17278 -2.1876,5.96027 1.0312,4.69499 0.4469,6.42173 -2.7526,8.13405 -3.3536,1.79477 -4.2881,1.46091 -5.3595,-1.91477 -1.6286,-5.13139 -13.2127,-11.7063 -13.2127,-7.49929 0,1.87517 -1.8679,2.47668 -5.8679,1.88959 -5.2157,-0.7655 -6.2724,0.0557 -9.5081,7.38976 -2.0022,4.53804 -4.76493,8.68253 -6.1394,9.20996 -4.77256,1.83141 -11.07826,-1.30972 -12.28556,-6.11993 -1.8748,-7.46988 0.44319,-10.94795 7.29643,-10.94795 7.06326,0 7.93963,-2.5945 2.22775,-6.59526 -3.89445,-2.72778 -3.89445,-2.7852 0,-5.21731 2.16578,-1.35255 3.93777,-3.52343 3.93777,-4.82417 0,-3.93186 6.28971,-9.60412 9.34821,-8.43047 1.5753,0.60452 5.0493,0.55072 7.7199,-0.11956 3.7093,-0.93096 5.0497,-2.88115 5.6777,-8.26032 0.734,-6.28706 0.2676,-7.10626 -4.3517,-7.64473 -3.8538,-0.44922 -5.6703,-2.28958 -7.1198,-7.21326 -1.0703,-3.6356 -2.672,-6.61017 -3.5593,-6.61017 -3.3404,0 -1.4552,11.71605 2.4545,15.25423 2.2373,2.02472 4.0678,4.97466 4.0678,6.55542 0,2.20747 -1.2974,1.95033 -5.5932,-1.1086 -5.4863,-3.90658 -6.7305,-4.42987 -10.53269,-4.42987 -1.6982,0 -1.54489,-23.72702 0.16393,-25.36437 1.15748,-1.10909 14.56146,5.93919 13.70126,7.20457 -1.0882,1.60067 6.2589,8.73783 7.6071,7.38969 2.6527,-2.65267 -4.6734,-10.51731 -17.1843,-18.44754 -15.6374,-9.91196 -24.77229,-14.19214 -24.77229,-11.60712 0,0.98993 -2.03443,1.26786 -4.52097,0.61762 -5.9148,-1.54675 -15.3825,-6.507 -12.76717,-6.68889 1.11865,-0.0778 -0.25423,-1.06475 -3.05084,-2.19324 -8.28546,-3.34332 -48.81356,-4.90762 -48.81356,-1.88409 0,1.81009 2.28579,2.13119 8.13559,1.14288 11.07222,-1.87064 24.47998,0.49348 23.10596,4.07416 -0.58458,1.52335 1.34916,4.31504 4.35161,6.28231 4.69228,3.07451 4.96621,3.78547 2.08061,5.40033 -2.49823,1.39808 -2.76616,2.53071 -1.07943,4.56311 1.71057,2.06109 1.14659,3.47183 -2.37366,5.93751 -2.53952,1.77875 -5.67447,3.23409 -6.96657,3.23409 -1.29209,0 -3.48864,1.37288 -4.88123,3.05085 -1.39259,1.67796 -4.13939,3.05085 -6.10398,3.05085 -2.05132,0 -4.64798,2.59764 -6.09941,6.10169 -3.77032,9.10236 -10.98224,8.3333 -16.10998,-1.71792 -3.74715,-7.345 -3.78051,-8.03065 -0.54982,-11.29635 3.23218,-3.26721 3.21081,-3.39028 -0.35457,-2.0422 -3.26352,1.23394 -3.57639,0.7516 -2.23758,-3.44942 2.83701,-8.9021 2.1889,-10.95976 -3.66388,-11.63253 -3.09525,-0.3558 -5.10055,-1.49987 -4.45625,-2.54237 0.64432,-1.04252 0.24527,-1.89547 -0.88676,-1.89547 -3.48828,0 -12.41913,4.62262 -12.41913,6.42816 0,0.93908 -2.05932,1.77175 -4.57627,1.85038 -3.36911,0.10523 -3.75346,0.50763 -1.457,1.52542 6.54087,2.89895 12.52629,8.25638 11.35019,10.15935 -0.67416,1.09082 0.24494,2.54768 2.04248,3.23746 2.65879,1.02027 2.79592,1.82322 0.73542,4.30599 -1.84394,2.22179 -3.2457,2.46023 -5.1538,0.87665 -2.02216,-1.67824 -2.38271,-1.26408 -1.5781,1.81274 1.42539,5.4508 -7.11033,8.36393 -10.58471,3.61242 -1.3272,-1.81506 -3.68508,-3.32095 -5.23971,-3.34642 -1.55465,-0.0255 0.16027,-1.51861 3.81079,-3.31808 5.2607,-2.59316 6.15824,-3.84915 4.32722,-6.05539 -3.32752,-4.00942 -8.56887,-3.42461 -11.50958,1.28419 -1.39721,2.23729 -4.00261,4.0678 -5.78978,4.0678 -4.45761,0 -19.08702,11.86887 -21.0708,17.09481 -1.89073,4.9808 0.91936,9.34586 6.01658,9.34586 2.67577,0 3.3001,1.23779 2.5647,5.08475 -1.23289,6.44942 3.02545,6.78187 5.44237,0.42489 0.97442,-2.56293 3.09331,-5.75674 4.70867,-7.09737 1.61537,-1.34063 2.78128,-5.05555 2.59093,-8.25539 -0.31269,-5.2562 0.25875,-5.79825 5.91893,-5.6145 4.41846,0.14345 6.27268,1.21016 6.29096,3.61916 0.0385,5.05003 2.5256,6.64924 5.93752,3.81761 3.68968,-3.06216 7.96542,-0.827 6.37021,3.33006 -0.73739,1.92161 0.32154,3.42181 2.88932,4.0933 2.22931,0.58298 3.55196,1.87116 2.93921,2.86263 -0.61278,0.99146 0.31277,1.80266 2.05675,1.80266 1.74399,0 3.17089,0.80422 3.17089,1.78715 0,2.47375 -11.13941,6.85692 -17.42625,6.85692 -3.70642,0 -4.86222,0.84563 -4.04972,2.96295 0.62534,1.62963 1.13699,3.8208 1.13699,4.86926 0,1.04847 2.51695,1.36889 5.59322,0.71204 5.23045,-1.11681 5.34954,-0.99646 1.8362,1.85545 -2.06636,1.67734 -5.04093,2.55704 -6.61017,1.95487 -1.56923,-0.60218 -2.85315,-0.11044 -2.85315,1.09281 0,1.20321 -1.1762,1.73632 -2.61378,1.18467 -1.43758,-0.55166 -4.45105,0.62113 -6.69657,2.60619 -2.24553,1.98507 -6.78966,5.15799 -10.09808,7.05094 -3.49035,1.99706 -6.04037,5.16868 -6.07503,7.55591 -0.033,2.26279 -2.74212,6.91401 -6.02065,10.33605 -5.3845,5.62021 -5.73998,6.80715 -3.67627,12.27459 1.25657,3.32901 1.53844,6.05274 0.6264,6.05274 -0.91204,0 -2.63263,-2.79508 -3.82352,-6.21132 -2.00903,-5.76303 -2.7632,-6.15559 -10.44987,-5.43919 -11.87499,1.10676 -15.06478,5.05248 -13.34666,16.50968 1.61829,10.79162 4.06064,13.0961 9.07251,8.56041 5.29769,-4.79433 6.97708,-3.9838 5.63628,2.72026 -1.01012,5.05049 -0.50291,6.06891 3.292,6.61017 3.13987,0.44782 4.79516,2.41017 5.5161,6.53939 0.58769,3.366 2.77692,6.58004 5.09782,7.48415 2.37836,0.92648 2.85517,1.64398 1.14803,1.72755 -1.60586,0.0787 -5.00375,-1.81484 -7.55086,-4.20774 -2.54712,-2.39289 -6.36507,-5.36746 -8.48435,-6.61017 -14.49541,-8.49987 -20.73285,-13.95346 -21.77703,-19.04038 -2.70419,-13.17387 -5.57386,-21.67991 -8.20015,-24.30618 -2.39341,-2.39344 -3.01468,-2.00445 -4.1736,2.61303 -2.27591,9.06797 0.71781,39.64791 5.35947,54.74525 12.27935,39.9395 43.56502,73.33633 83.33951,88.96328 7.27118,2.85676 16.42372,5.83363 20.33898,6.61524 l 7.11864,1.42112 -8.6054,-6.44394 c -6.24336,-4.6752 -9.21978,-8.72564 -10.84375,-14.75662 -1.23112,-4.57198 -3.42777,-10.22595 -4.88146,-12.56437 -1.45368,-2.33841 -3.18992,-6.62072 -3.85826,-9.51626 -0.83662,-3.62455 -3.76326,-6.41363 -9.39452,-8.95298 -4.49863,-2.02859 -8.17934,-4.69342 -8.17938,-5.92181 -4e-5,-1.22842 -3.22037,-4.80297 -7.15631,-7.94347 -7.01298,-5.59568 -7.13624,-5.95025 -6.15675,-17.71064 0.56176,-6.74498 0.13281,-12.53626 -0.97928,-13.22361 -3.3056,-2.04297 -2.26615,-4.00387 4.12291,-7.778 5.85797,-3.46039 6.10294,-3.4576 6.13283,0.07 0.0183,2.21524 0.62453,2.79868 1.52543,1.46927 2.62371,-3.87167 17.36739,-2.26296 22.03334,2.40409 2.3462,2.34677 7.83726,4.84061 12.20235,5.54188 8.70895,1.3991 15.25743,8.22002 9.87474,10.28557 -5.85,2.24485 -2.78868,4.57708 5.18046,3.94669 4.47458,-0.35396 8.1356,0.24127 8.1356,1.32271 0,1.08144 1.30881,1.46402 2.90849,0.85017 3.7827,-1.45155 17.43049,5.0307 17.43049,8.27892 0,1.37713 -1.83051,4.16046 -4.0678,6.18519 -2.23729,2.02472 -4.0678,5.65265 -4.0678,8.06208 0,5.56412 -3.97248,10.72032 -8.93454,11.59684 -4.03542,0.71285 -5.36825,2.54624 -9.73562,13.39192 -1.5597,3.87324 -4.11407,6.61017 -6.16929,6.61017 -2.28213,0 -3.09846,1.06581 -2.33674,3.05085 0.64391,1.67797 0.16332,3.05085 -1.06802,3.05085 -6.40265,0 3.50148,15.48402 12.05754,18.85065 4.97819,1.95881 28.64343,1.58148 42.57516,-0.67883 z M 846.82762,260.1013 c -3.66777,-1.46592 -1.00009,-4.74155 3.86152,-4.74155 2.27429,0 3.75688,1.08112 3.31216,2.41525 -0.95477,2.86432 -3.64482,3.73666 -7.17368,2.3263 z m -9.02508,-4.90562 c -0.40295,-1.20889 -3.91143,-2.9457 -7.7966,-3.85961 l -7.06395,-1.66163 7.11864,-0.1436 c 7.12027,-0.14359 15.34609,4.04205 12.84975,6.53842 -1.98924,1.98923 -4.28439,1.59665 -5.10784,-0.87367 z m 198.69876,-42.54779 c -0.6914,-1.11865 -0.2878,-2.0339 0.8969,-2.0339 1.1847,0 2.1539,0.91525 2.1539,2.0339 0,1.11864 -0.4036,2.0339 -0.8969,2.0339 -0.4933,0 -1.4625,-0.91526 -2.1539,-2.0339 z M 886.50131,190.85212 c -3.07627,-0.46602 -5.59322,-1.52683 -5.59322,-2.35737 0,-2.7101 5.97,-9.49772 6.03702,-6.86381 0.0356,1.3983 1.43756,2.54237 3.11552,2.54237 1.69491,0 3.05085,1.80791 3.05085,4.0678 0,2.23729 -0.22881,3.93066 -0.50848,3.76305 -0.27966,-0.16761 -3.02542,-0.68603 -6.10169,-1.15204 z m 101.96241,-11.25508 c -0.13261,-1.3983 -0.0897,-3.69869 0.0954,-5.11197 0.18509,-1.41327 -1.00867,-3.08573 -2.65261,-3.71658 -4.19294,-1.60899 -5.89993,-6.93416 -2.22272,-6.93416 1.64286,0 2.98702,0.9552 2.98702,2.12267 0,1.16746 2.28813,4.59031 5.08474,7.60633 2.79661,3.01602 5.08475,6.17946 5.08475,7.02988 0,2.65364 -8.12217,1.68773 -8.37657,-0.99617 z m -10.74207,-2.74576 c -0.74453,-1.94022 -0.43845,-4.44292 0.68019,-5.56156 1.35594,-1.35594 2.48514,-0.85801 3.3876,1.49376 0.74453,1.94022 0.43845,4.44292 -0.68019,5.56156 -1.35594,1.35594 -2.48514,0.85801 -3.3876,-1.49376 z M 849.38267,147.56314 c 0.69136,-1.11864 2.11826,-2.03389 3.17088,-2.03389 1.05263,0 1.91386,0.91525 1.91386,2.03389 0,1.11865 -1.4269,2.0339 -3.17089,2.0339 -1.74398,0 -2.60522,-0.91525 -1.91385,-2.0339 z m 98.64406,-0.44054 c 0,-1.54971 1.99237,-2.65741 4.57627,-2.5443 6.385,0.27951 6.82607,3.86348 0.57171,4.64536 -3.28273,0.41039 -5.14798,-0.35088 -5.14798,-2.10106 z m -82.37288,-7.69505 c 0.69137,-1.11864 1.66064,-2.0339 2.15394,-2.0339 0.4933,0 0.89691,0.91526 0.89691,2.0339 0,1.11864 -0.96927,2.0339 -2.15394,2.0339 -1.18466,0 -1.58827,-0.91526 -0.89691,-2.0339 z M 1059.6383,259.403 c -2.2174,-17.45768 -4.459,-24.9359 -7.8093,-26.05265 -1.9962,-0.66541 -2.3212,0.13871 -1.1793,2.91832 3.6088,8.7841 5.4454,20.67561 4.5172,29.24816 -0.5443,5.02707 -0,10.97622 1.2041,13.22034 2.1118,3.92783 2.2451,3.88939 3.5686,-1.02909 0.7561,-2.81009 0.6205,-11.04738 -0.3013,-18.30508 z m 3.776,-22.85681 c -0.4282,-4.75424 -0.7786,-0.86441 -0.7786,8.64407 0,9.50847 0.3504,13.3983 0.7786,8.64407 0.4282,-4.75424 0.4282,-12.5339 0,-17.28814 z m -2.1762,-18.30508 c -0.5642,-1.39831 -1.0258,-0.25424 -1.0258,2.54237 0,2.79661 0.4616,3.94068 1.0258,2.54237 0.5643,-1.3983 0.5643,-3.68644 0,-5.08474 z M 850.67132,134.51913 c 3.36397,-4.15432 3.40373,-4.12202 2.29682,1.86589 -1.10853,5.99683 -1.06073,6.03515 3.01666,2.4185 4.50645,-3.99722 4.08092,-10.55684 -0.8065,-12.43232 -1.65197,-0.63392 -2.40787,-0.24736 -1.71344,0.87626 0.68343,1.10583 -0.15207,2.0106 -1.8567,2.0106 -1.70463,0 -4.07898,1.83051 -5.27634,4.0678 -1.25089,2.3373 -4.25862,4.06779 -7.07018,4.06779 -2.69123,0 -5.4253,0.86104 -6.0757,1.91343 -2.39408,3.8737 14.13708,-0.65295 17.48538,-4.78795 z m 16.58954,-11.36557 c 0.58545,-2.23883 0.23459,-3.5577 -0.77974,-2.93081 -1.01433,0.62688 -1.84422,2.45865 -1.84422,4.0706 0,4.20966 1.38204,3.60933 2.62396,-1.13979 z m -5.2087,0.80789 c -0.67586,-0.67585 -2.4301,-0.74811 -3.89831,-0.16058 -1.6225,0.64928 -1.14057,1.13122 1.22882,1.22882 2.14406,0.0883 3.34534,-0.3924 2.66949,-1.06825 z M 1020.9876,68.749597 c -2.4277,-3.09559 -2.3939,-3.2566 0.2595,-1.23581 1.6779,1.27792 4.8813,2.77345 7.1186,3.32338 3.8637,0.9497 3.8506,1.01172 -0.2594,1.23582 -2.38,0.12976 -5.5834,-1.36577 -7.1187,-3.32339 z m 3.3247,-2.51908 c -0.7125,-1.15293 0.1039,-1.49391 1.9139,-0.79934 3.5235,1.35211 4.1682,2.80994 1.2426,2.80994 -1.0526,0 -2.4731,-0.90477 -3.1565,-2.0106 z m 4.0013,-7.99485 c 0.8927,-2.8125 0.047,-4.28214 -3.0257,-5.25734 -5.8055,-1.8426 -4.0793,-5.64284 3.7383,-8.22951 4.0573,-1.34247 5.7451,-2.8541 4.542,-4.06779 -2.721,-2.745 6.1146,-19.44267 11.304,-21.36234 6.716,-2.48445 9.6764,0.7443 8.3239,9.07864 -0.6553,4.03864 -2.6205,8.77188 -4.3669,10.51832 -1.7464,1.74645 -3.1754,4.13198 -3.1754,5.30119 0,1.16921 -1.8205,1.64975 -4.0457,1.06786 -3.75,-0.98066 -3.8243,-0.74196 -1.0169,3.26618 1.6658,2.37829 3.0287,6.02375 3.0287,8.10101 0,3.13838 -1.0314,3.5503 -6.1016,2.43669 -3.839,-0.84318 -6.1017,-0.52598 -6.1017,0.85535 0,1.20752 -0.977,2.1955 -2.171,2.1955 -1.215,0 -1.6254,-1.71903 -0.932,-3.90376 z m 31.2416,-10.3835 c -6.927,-3.65928 -7.2869,-4.29956 -5.0848,-9.04678 2.6838,-5.78542 3.9766,-6.21244 7.8662,-2.59816 1.5049,1.3983 4.0872,2.83656 5.7386,3.19612 5.1609,1.12376 6.5153,3.83507 4.1362,8.28043 -2.7612,5.15938 -3.1973,5.16518 -12.6562,0.16839 z m 7.2451,-4.35681 c -0.5762,-0.9322 -1.9088,-1.69491 -2.9614,-1.69491 -1.0526,0 -1.9139,0.76271 -1.9139,1.69491 0,0.93221 1.3327,1.69492 2.9614,1.69492 1.6288,0 2.49,-0.76271 1.9139,-1.69492 z m -46.4299,-15.66016 c -6.0733,-3.56406 -9.2647,-8.40763 -5.5398,-8.40763 1.132,0 3.3874,1.32929 5.0121,2.95399 2.9572,2.95717 5.4722,2.2227 5.4722,-1.59806 0,-1.11865 -0.578,-1.45593 -1.2844,-0.74953 -0.7064,0.70641 -3.0928,0.31653 -5.3031,-0.86639 -2.6477,-1.41698 -3.3329,-2.8366 -2.0085,-4.16102 2.5837,-2.58369 19.4423,5.74814 17.6146,8.70544 -0.712,1.15202 -2.8036,1.52033 -4.6481,0.81847 -2.688,-1.02283 -2.849,-0.76777 -0.8112,1.28507 6.2412,6.28737 0.9214,7.55082 -8.5038,2.01966 z"
       id="path58"
       sodipodi:nodetypes="sssssssssssscssssssssssssssssssssssssssssssssssssssssssssssssssssssssssssssssssssssssssssssssssssssssssssssscsssssssssssssssscssssssssssscsssssssscsssssssscscsssssssssssssssssssssscscssccsssssssssssssssssssssssssssssssssssssssssssscsssssssssssssssssssssssssssssssssssssssssssssssssssssssssssssssssssssssssss" />
  </g>
</svg>
