<?xml version="1.0" encoding="UTF-8" standalone="no"?>
<svg
   xmlns:dc="http://purl.org/dc/elements/1.1/"
   xmlns:cc="http://creativecommons.org/ns#"
   xmlns:rdf="http://www.w3.org/1999/02/22-rdf-syntax-ns#"
   xmlns:svg="http://www.w3.org/2000/svg"
   xmlns="http://www.w3.org/2000/svg"
   xmlns:sodipodi="http://sodipodi.sourceforge.net/DTD/sodipodi-0.dtd"
   xmlns:inkscape="http://www.inkscape.org/namespaces/inkscape"
   width="149.75652mm"
   height="49.446335mm"
   viewBox="0 0 149.75652 49.446335"
   version="1.1"
   id="svg898"
   inkscape:version="1.0.2-2 (e86c870879, 2021-01-15)"
   sodipodi:docname="linkdb.svg">
  <defs
     id="defs892" />
  <sodipodi:namedview
     id="base"
     pagecolor="#ffffff"
     bordercolor="#666666"
     borderopacity="1.0"
     inkscape:pageopacity="0.0"
     inkscape:pageshadow="2"
     inkscape:zoom="0.35"
     inkscape:cx="268.71873"
     inkscape:cy="216.29904"
     inkscape:document-units="mm"
     inkscape:current-layer="layer1"
     inkscape:document-rotation="0"
     showgrid="false"
     inkscape:window-width="1346"
     inkscape:window-height="1040"
     inkscape:window-x="156"
     inkscape:window-y="0"
     inkscape:window-maximized="0" />
  <metadata
     id="metadata895">
    <rdf:RDF>
      <cc:Work
         rdf:about="">
        <dc:format>image/svg+xml</dc:format>
        <dc:type
           rdf:resource="http://purl.org/dc/dcmitype/StillImage" />
        <dc:title></dc:title>
      </cc:Work>
    </rdf:RDF>
  </metadata>
  <g
     inkscape:label="Layer 1"
     inkscape:groupmode="layer"
     id="layer1"
     transform="translate(-34.734837,-90.937546)">
    <path
       style="fill:#2c3e50;fill-opacity:1;stroke-width:0.671957"
       d="M 107.40436,136.87094 V 133.358 l -34.43784,-0.0795 c -18.940807,-0.0437 -35.291445,-0.27052 -36.334761,-0.50397 l -1.896922,-0.42446 1.939261,-1.85323 1.939271,-1.85322 40.122168,0.17333 40.122163,0.17333 -5.72667,5.6968 -5.72667,5.6968 z m 12.59737,-3.65823 c -0.19934,-0.51946 1.11879,-8.33439 2.92917,-17.36652 2.41631,-12.05523 3.60384,-16.663587 4.46585,-17.330369 0.90062,-0.696632 3.00445,-0.822301 9.02743,-0.539234 11.42238,0.536834 15.14975,2.789833 16.63649,10.055843 1.35311,6.61302 -1.29563,15.68632 -5.88436,20.15691 -4.41428,4.30063 -7.98462,5.43458 -18.00502,5.71838 -7.11425,0.2015 -8.8768,0.0679 -9.16956,-0.69501 z m 16.50928,-6.20391 c 3.48213,-1.24189 5.06894,-2.78799 6.93174,-6.75397 1.13197,-2.40997 1.57996,-4.56169 1.58467,-7.61121 0.006,-3.80738 -0.19859,-4.45659 -1.95762,-6.21561 -1.0803,-1.08031 -2.6678,-1.96751 -3.52777,-1.97159 -0.85998,-0.004 -2.64192,-0.18579 -3.95989,-0.40384 l -2.39628,-0.39645 -2.22652,10.91166 c -1.2246,6.00141 -2.37379,11.4748 -2.55378,12.1631 -0.28308,1.08249 0.0689,1.24747 2.60694,1.22196 1.6138,-0.0162 4.08813,-0.44105 5.49851,-0.94405 z m 19.08006,6.1403 c -0.1859,-0.48447 1.14321,-8.27078 2.95357,-17.30291 2.42067,-12.07692 3.6023,-16.660023 4.46588,-17.32146 1.57265,-1.204558 14.47837,-0.747856 17.2408,0.61011 3.42008,1.68124 4.67156,4.05144 4.11144,7.78663 -0.38677,2.57915 -1.036,3.7737 -3.13759,5.77289 -1.53823,1.46328 -2.23565,2.52078 -1.66243,2.52078 0.54309,0 1.64389,0.83155 2.44618,1.84789 1.19507,1.51388 1.40602,2.49056 1.16711,5.40353 -0.43281,5.27683 -4.04503,9.27077 -9.84078,10.88067 -3.74177,1.03936 -17.32751,0.88766 -17.74418,-0.19813 z m 16.53339,-5.94847 c 2.0897,-1.11299 3.1016,-2.63881 3.12624,-4.71394 0.034,-2.86192 -1.57316,-3.91176 -5.98837,-3.91176 h -3.89784 l -0.40402,2.51984 c -0.22217,1.38592 -0.601,3.50258 -0.84183,4.70371 l -0.43783,2.18386 h 3.48795 c 1.91839,0 4.14843,-0.35177 4.9557,-0.78171 z m 2.72,-16.44484 c 2.14278,-2.14278 2.37656,-5.24892 0.4718,-6.26833 -0.71488,-0.38258 -2.5041,-0.6956 -3.97608,-0.6956 -2.67102,0 -2.67777,0.007 -3.40397,3.39287 -1.12863,5.26264 -1.09564,5.34258 2.20456,5.34258 2.27216,0 3.33095,-0.39876 4.70369,-1.77152 z"
       id="path847"
       sodipodi:nodetypes="ccssccccccccsssssssssscssscsssssssssssssssssscsscssssssss" />
    <path
       style="fill:#f75814;fill-opacity:1;stroke-width:0.671957"
       d="m 41.462299,127.36693 c -0.489823,-0.48983 0.359172,-6.00348 2.79654,-18.16197 0.423043,-2.11039 0.838094,-4.14533 1.230577,-6.03843 1.393323,-6.720467 2.502509,-11.653399 2.677795,-11.828696 0.499216,-0.499253 5.727436,-0.546671 6.217709,-0.05638 0.193622,0.193654 -1.17139,8.172384 -3.033369,17.730526 -2.495285,12.80892 -3.687101,17.59928 -4.53263,18.21837 -1.395915,1.02207 -4.394703,1.09855 -5.356622,0.13661 z m 13.437658,-10e-4 c -0.787267,-0.78726 3.405161,-23.17973 4.617244,-24.66157 0.745675,-0.91159 4.420023,-1.12323 5.654172,-0.32569 1.154192,0.74589 -3.394948,23.7314 -4.918604,24.85215 -1.390359,1.02271 -4.389517,1.09842 -5.352812,0.13511 z m 13.439167,0 c -0.798539,-0.79851 3.413839,-23.19073 4.645713,-24.69588 0.393541,-0.48084 1.648433,-0.78322 2.788655,-0.67196 1.552575,0.15151 2.12635,0.57698 2.285233,1.69452 l 0.212143,1.49222 2.475679,-1.61009 c 3.840401,-2.49762 8.108474,-2.52224 10.569734,-0.0609 2.114232,2.11422 2.160852,5.46457 0.215503,15.48556 -1.504791,7.75148 -2.273353,9.07893 -5.246185,9.06114 -3.418072,-0.0204 -3.498109,-0.43894 -1.771861,-9.26592 1.72675,-8.82991 1.650153,-10.88269 -0.406109,-10.88269 -3.749622,0 -6.13873,3.65052 -7.984887,12.20068 -0.807826,3.74126 -1.803532,6.61756 -2.464144,7.11811 -1.349639,1.02262 -4.355624,1.09898 -5.319474,0.13511 z m 28.223686,10e-4 c -0.489823,-0.48983 0.359172,-6.00349 2.79654,-18.16197 1.92493,-9.602246 3.68372,-17.64245 3.90838,-17.867126 0.50861,-0.508603 5.73183,-0.542282 6.23393,-0.04018 0.32038,0.320389 -2.54032,16.086196 -3.54931,19.560896 -0.20238,0.69691 1.87934,-1.06181 4.62606,-3.90825 4.87894,-5.05614 5.06132,-5.17046 7.9175,-4.96287 1.73553,0.12615 3.04752,0.58923 3.22876,1.13963 0.17431,0.52942 -1.79927,2.90234 -4.60068,5.53153 l -4.90599,4.60437 2.80504,5.90252 c 3.05943,6.43783 3.35473,7.87813 1.74215,8.49693 -1.45016,0.55648 -4.49318,0.49602 -5.35509,-0.10638 -0.38849,-0.27152 -1.88373,-3.13097 -3.32277,-6.35433 -1.43904,-3.22336 -2.67523,-5.7936 -2.74712,-5.71164 -0.0719,0.082 -0.62277,2.56806 -1.22422,5.52467 -0.6526,3.20791 -1.54726,5.71438 -2.21864,6.21561 -1.36893,1.02201 -4.372224,1.09891 -5.33454,0.1366 z M 60.879647,98.73107 c -1.285611,-0.518758 -1.016053,-4.562977 0.388911,-5.834427 2.507641,-2.269403 6.834637,-1.226283 6.834637,1.64764 0,3.426184 -3.73851,5.593027 -7.223548,4.186787 z"
       id="path847-0"
       sodipodi:nodetypes="sssssssssssssscssscssssssssccssssssssscsssssssssssss" />
  </g>
</svg>
