<?xml version="1.0" encoding="UTF-8" standalone="no"?>
<svg
   xmlns:dc="http://purl.org/dc/elements/1.1/"
   xmlns:cc="http://creativecommons.org/ns#"
   xmlns:rdf="http://www.w3.org/1999/02/22-rdf-syntax-ns#"
   xmlns:svg="http://www.w3.org/2000/svg"
   xmlns="http://www.w3.org/2000/svg"
   xmlns:sodipodi="http://sodipodi.sourceforge.net/DTD/sodipodi-0.dtd"
   xmlns:inkscape="http://www.inkscape.org/namespaces/inkscape"
   version="1.1"
   id="svg46"
   width="1983.0508"
   height="402.71185"
   viewBox="0 0 1983.0508 402.71185"
   sodipodi:docname="downlink.svg"
   inkscape:version="1.0.2-2 (e86c870879, 2021-01-15)">
  <metadata
     id="metadata52">
    <rdf:RDF>
      <cc:Work
         rdf:about="">
        <dc:format>image/svg+xml</dc:format>
        <dc:type
           rdf:resource="http://purl.org/dc/dcmitype/StillImage" />
        <dc:title></dc:title>
      </cc:Work>
    </rdf:RDF>
  </metadata>
  <defs
     id="defs50" />
  <sodipodi:namedview
     pagecolor="#ffffff"
     bordercolor="#333f50"
     borderopacity="1"
     objecttolerance="10"
     gridtolerance="10"
     guidetolerance="10"
     inkscape:pageopacity="0"
     inkscape:pageshadow="2"
     inkscape:window-width="1380"
     inkscape:window-height="784"
     id="namedview48"
     showgrid="false"
     inkscape:zoom="0.5637778"
     inkscape:cx="991.52539"
     inkscape:cy="414.20574"
     inkscape:window-x="199"
     inkscape:window-y="38"
     inkscape:window-maximized="0"
     inkscape:current-layer="g54" />
  <g
     inkscape:groupmode="layer"
     inkscape:label="Image"
     id="g54">
    <path
       style="fill:#fff;stroke-width:2.0339"
       d="m 410.65824,390.23935 c -47.61765,-7.63351 -89.24387,-38.33976 -109.89146,-81.06317 -20.00453,-41.3928 -20.00453,-82.675 0,-124.0678 17.9159,-37.07108 49.88955,-64.08628 90.56943,-76.52397 21.82548,-6.67305 59.53045,-6.67305 81.35593,0 52.22916,15.96883 92.15951,58.98053 102.58936,110.50602 6.34194,31.33037 2.5153,60.00986 -12.01993,90.08575 -23.70484,49.04942 -70.30847,79.31682 -125.1457,81.27768 -11.74576,0.42 -24.1017,0.32347 -27.45763,-0.21451 z m 45.71052,-6.95915 c 16.51349,-2.67919 35.99219,-10.36631 52.35037,-20.65969 14.38309,-9.05054 37.95598,-33.5088 44.95255,-46.64095 l 4.70837,-8.83728 -5.72532,6.37061 c -3.14893,3.50386 -10.7592,12.57539 -16.91175,20.15897 -13.45836,16.58867 -36.61016,32.686 -36.61016,25.45486 0,-1.05262 1.01896,-2.54363 2.26437,-3.31332 1.2454,-0.76971 4.10787,-5.62881 6.36106,-10.79801 2.25318,-5.16919 7.34736,-14.71619 11.32042,-21.21553 6.5858,-10.77345 7.01676,-12.38994 4.88027,-18.30508 -1.2889,-3.56846 -1.81462,-8.50591 -1.16829,-10.97213 0.93379,-3.56308 0.1259,-4.74738 -3.93327,-5.76616 -2.80961,-0.70518 -6.79534,-0.39865 -8.85716,0.68119 -6.94603,3.63781 -16.48955,0.42336 -24.25178,-8.16852 -6.44251,-7.13109 -7.19695,-9.04475 -6.12514,-15.53662 0.6723,-4.07211 1.48472,-10.51556 1.80539,-14.31879 0.4249,-5.03947 2.62901,-8.68357 8.12662,-13.43587 4.14899,-3.58652 7.54361,-7.42615 7.54361,-8.53253 0,-4.27214 7.61367,-8.47812 19.1871,-10.59948 14.90315,-2.73164 14.00854,-2.78032 12.67696,0.6897 -0.67027,1.74669 1.61793,4.98514 5.74839,8.13559 7.79414,5.9449 11.20111,6.60887 11.20111,2.18298 0,-3.97098 3.3785,-3.92135 5.61919,0.0826 2.80808,5.01771 8.61809,1.3874 8.61809,-5.38493 0,-4.40668 -0.96179,-5.88409 -3.83058,-5.88409 -2.10681,0 -4.26832,-1.67396 -4.80336,-3.71991 -1.18712,-4.5396 3.46573,-11.43755 6.46473,-9.58406 1.19306,0.73735 2.14011,0.14258 2.10454,-1.32175 -0.10355,-4.26124 -5.16293,-9.78105 -8.96523,-9.78105 -2.80867,0 -3.2391,1.17278 -2.18759,5.96027 1.03118,4.69499 0.44684,6.42173 -2.75268,8.13405 -3.35356,1.79477 -4.28803,1.46091 -5.35943,-1.91477 -1.62864,-5.13139 -13.21277,-11.7063 -13.21277,-7.49929 0,1.87517 -1.86785,2.47668 -5.86784,1.88959 -5.21572,-0.7655 -6.2724,0.0557 -9.50817,7.38976 -2.00216,4.53804 -4.76489,8.68253 -6.13936,9.20996 -4.77256,1.83141 -11.07826,-1.30972 -12.28556,-6.11993 -1.8748,-7.46988 0.44319,-10.94795 7.29643,-10.94795 7.06326,0 7.93965,-2.5945 2.22775,-6.59526 -3.89445,-2.72778 -3.89445,-2.7852 0,-5.21731 2.16578,-1.35255 3.93777,-3.52343 3.93777,-4.82417 0,-3.93186 6.28973,-9.60412 9.34818,-8.43047 1.57538,0.60452 5.04934,0.55072 7.71993,-0.11956 3.70926,-0.93096 5.0497,-2.88115 5.67768,-8.26032 0.73398,-6.28706 0.26767,-7.10626 -4.35168,-7.64473 -3.85377,-0.44922 -5.67027,-2.28958 -7.11981,-7.21326 -1.0703,-3.6356 -2.67199,-6.61017 -3.55932,-6.61017 -3.34033,0 -1.45513,11.71605 2.45451,15.25423 2.23729,2.02472 4.0678,4.97466 4.0678,6.55542 0,2.20747 -1.29735,1.95033 -5.59322,-1.1086 -5.48628,-3.90658 -6.73048,-4.42987 -10.53265,-4.42987 -1.6982,0 -1.54489,-23.72702 0.16393,-25.36437 1.15748,-1.10909 14.5615,5.93919 13.70124,7.20457 -1.08818,1.60067 6.25897,8.73783 7.60712,7.38969 2.65267,-2.65267 -4.67343,-10.51731 -17.18434,-18.44754 -15.63736,-9.91196 -24.77225,-14.19214 -24.77225,-11.60712 0,0.98993 -2.03443,1.26786 -4.52097,0.61762 -5.9148,-1.54675 -15.3825,-6.507 -12.76717,-6.68889 1.11865,-0.0778 -0.25423,-1.06475 -3.05084,-2.19324 -8.28546,-3.34332 -48.81356,-4.90762 -48.81356,-1.88409 0,1.81009 2.28579,2.13119 8.13559,1.14288 11.07222,-1.87064 24.47998,0.49348 23.10596,4.07416 -0.58458,1.52335 1.34916,4.31504 4.35161,6.28231 4.69228,3.07451 4.96621,3.78547 2.08061,5.40033 -2.49823,1.39808 -2.76616,2.53071 -1.07943,4.56311 1.71057,2.06109 1.14659,3.47183 -2.37366,5.93751 -2.53952,1.77875 -5.67447,3.23409 -6.96657,3.23409 -1.29209,0 -3.48864,1.37288 -4.88123,3.05085 -1.39259,1.67796 -4.13939,3.05085 -6.10398,3.05085 -2.05132,0 -4.64798,2.59764 -6.09941,6.10169 -3.77032,9.10236 -10.98224,8.3333 -16.10998,-1.71792 -3.74715,-7.345 -3.78051,-8.03065 -0.54982,-11.29635 3.23218,-3.26721 3.21081,-3.39028 -0.35457,-2.0422 -3.26352,1.23394 -3.57639,0.7516 -2.23758,-3.44942 2.83701,-8.9021 2.1889,-10.95976 -3.66388,-11.63253 -3.09525,-0.3558 -5.10055,-1.49987 -4.45625,-2.54237 0.64432,-1.04252 0.24527,-1.89547 -0.88676,-1.89547 -3.48828,0 -12.41913,4.62262 -12.41913,6.42816 0,0.93908 -2.05932,1.77175 -4.57627,1.85038 -3.36911,0.10523 -3.75346,0.50763 -1.457,1.52542 6.54087,2.89895 12.52629,8.25638 11.35019,10.15935 -0.67416,1.09082 0.24494,2.54768 2.04248,3.23746 2.65879,1.02027 2.79592,1.82322 0.73542,4.30599 -1.84394,2.22179 -3.2457,2.46023 -5.1538,0.87665 -2.02216,-1.67824 -2.38271,-1.26408 -1.5781,1.81274 1.42539,5.4508 -7.11033,8.36393 -10.58471,3.61242 -1.3272,-1.81506 -3.68508,-3.32095 -5.23971,-3.34642 -1.55465,-0.0255 0.16027,-1.51861 3.81079,-3.31808 5.2607,-2.59316 6.15824,-3.84915 4.32722,-6.05539 -3.32752,-4.00942 -8.56887,-3.42461 -11.50958,1.28419 -1.39721,2.23729 -4.00261,4.0678 -5.78978,4.0678 -4.45761,0 -19.08702,11.86887 -21.0708,17.09481 -1.89073,4.9808 0.91936,9.34586 6.01658,9.34586 2.67577,0 3.3001,1.23779 2.5647,5.08475 -1.23289,6.44942 3.02545,6.78187 5.44237,0.42489 0.97442,-2.56293 3.09331,-5.75674 4.70867,-7.09737 1.61537,-1.34063 2.78128,-5.05555 2.59093,-8.25539 -0.31269,-5.2562 0.25875,-5.79825 5.91893,-5.6145 4.41846,0.14345 6.27268,1.21016 6.29096,3.61916 0.0385,5.05003 2.5256,6.64924 5.93752,3.81761 3.68968,-3.06216 7.96542,-0.827 6.37021,3.33006 -0.73739,1.92161 0.32154,3.42181 2.88932,4.0933 2.22931,0.58298 3.55196,1.87116 2.93921,2.86263 -0.61278,0.99146 0.31277,1.80266 2.05675,1.80266 1.74399,0 3.17089,0.80422 3.17089,1.78715 0,2.47375 -11.13941,6.85692 -17.42625,6.85692 -3.70642,0 -4.86222,0.84563 -4.04972,2.96295 0.62534,1.62963 1.13699,3.8208 1.13699,4.86926 0,1.04847 2.51695,1.36889 5.59322,0.71204 5.23045,-1.11681 5.34954,-0.99646 1.8362,1.85545 -2.06636,1.67734 -5.04093,2.55704 -6.61017,1.95487 -1.56923,-0.60218 -2.85315,-0.11044 -2.85315,1.09281 0,1.20321 -1.1762,1.73632 -2.61378,1.18467 -1.43758,-0.55166 -4.45105,0.62113 -6.69657,2.60619 -2.24553,1.98507 -6.78966,5.15799 -10.09808,7.05094 -3.49035,1.99706 -6.04037,5.16868 -6.07503,7.55591 -0.033,2.26279 -2.74212,6.91401 -6.02065,10.33605 -5.3845,5.62021 -5.73998,6.80715 -3.67627,12.27459 1.25657,3.32901 1.53844,6.05274 0.6264,6.05274 -0.91204,0 -2.63263,-2.79508 -3.82352,-6.21132 -2.00903,-5.76303 -2.7632,-6.15559 -10.44987,-5.43919 -11.87499,1.10676 -15.06478,5.05248 -13.34666,16.50968 1.61829,10.79162 4.06064,13.0961 9.07251,8.56041 5.29769,-4.79433 6.97708,-3.9838 5.63628,2.72026 -1.01012,5.05049 -0.50291,6.06891 3.292,6.61017 3.13987,0.44782 4.79516,2.41017 5.5161,6.53939 0.58769,3.366 2.77692,6.58004 5.09782,7.48415 2.37836,0.92648 2.85517,1.64398 1.14803,1.72755 -1.60586,0.0787 -5.00375,-1.81484 -7.55086,-4.20774 -2.54712,-2.39289 -6.36507,-5.36746 -8.48435,-6.61017 -14.49541,-8.49987 -20.73285,-13.95346 -21.77703,-19.04038 -2.70419,-13.17387 -5.57386,-21.67991 -8.20015,-24.30618 -2.39341,-2.39344 -3.01468,-2.00445 -4.1736,2.61303 -2.27591,9.06797 0.71781,39.64791 5.35947,54.74525 12.27935,39.9395 43.56502,73.33633 83.33951,88.96328 7.27118,2.85676 16.42372,5.83363 20.33898,6.61524 l 7.11864,1.42112 -8.6054,-6.44394 c -6.24336,-4.6752 -9.21978,-8.72564 -10.84375,-14.75662 -1.23112,-4.57198 -3.42777,-10.22595 -4.88146,-12.56437 -1.45368,-2.33841 -3.18992,-6.62072 -3.85826,-9.51626 -0.83662,-3.62455 -3.76326,-6.41363 -9.39452,-8.95298 -4.49863,-2.02859 -8.17934,-4.69342 -8.17938,-5.92181 -4e-5,-1.22842 -3.22037,-4.80297 -7.15631,-7.94347 -7.01298,-5.59568 -7.13624,-5.95025 -6.15675,-17.71064 0.56176,-6.74498 0.13281,-12.53626 -0.97928,-13.22361 -3.3056,-2.04297 -2.26615,-4.00387 4.12291,-7.778 5.85797,-3.46039 6.10294,-3.4576 6.13283,0.07 0.0183,2.21524 0.62453,2.79868 1.52543,1.46927 2.62371,-3.87167 17.36739,-2.26296 22.03334,2.40409 2.3462,2.34677 7.83726,4.84061 12.20235,5.54188 8.70895,1.3991 15.25743,8.22002 9.87474,10.28557 -5.85,2.24485 -2.78868,4.57708 5.18046,3.94669 4.47458,-0.35396 8.1356,0.24127 8.1356,1.32271 0,1.08144 1.30881,1.46402 2.90849,0.85017 3.7827,-1.45155 17.43049,5.0307 17.43049,8.27892 0,1.37713 -1.83051,4.16046 -4.0678,6.18519 -2.23729,2.02472 -4.0678,5.65265 -4.0678,8.06208 0,5.56412 -3.97248,10.72032 -8.93454,11.59684 -4.03542,0.71285 -5.36825,2.54624 -9.73562,13.39192 -1.5597,3.87324 -4.11407,6.61017 -6.16929,6.61017 -2.28213,0 -3.09846,1.06581 -2.33674,3.05085 0.64391,1.67797 0.16332,3.05085 -1.06802,3.05085 -6.40265,0 3.50148,15.48402 12.05754,18.85065 4.97819,1.95881 28.64343,1.58148 42.57516,-0.67883 z M 355.22184,262.05332 c -3.66777,-1.46592 -1.00009,-4.74155 3.86152,-4.74155 2.27429,0 3.75688,1.08112 3.31216,2.41525 -0.95477,2.86432 -3.64482,3.73666 -7.17368,2.3263 z m -9.02508,-4.90562 c -0.40295,-1.20889 -3.91143,-2.9457 -7.7966,-3.85961 l -7.06395,-1.66163 7.11864,-0.1436 c 7.12027,-0.14359 15.34609,4.04205 12.84975,6.53842 -1.98924,1.98923 -4.28439,1.59665 -5.10784,-0.87367 z m 198.69877,-42.54779 c -0.69137,-1.11865 -0.28776,-2.0339 0.8969,-2.0339 1.18467,0 2.15394,0.91525 2.15394,2.0339 0,1.11864 -0.4036,2.0339 -0.8969,2.0339 -0.49331,0 -1.46258,-0.91526 -2.15394,-2.0339 z m -150,-21.79577 c -3.07627,-0.46602 -5.59322,-1.52683 -5.59322,-2.35737 0,-2.7101 5.97,-9.49772 6.03702,-6.86381 0.0356,1.3983 1.43756,2.54237 3.11552,2.54237 1.69491,0 3.05085,1.80791 3.05085,4.0678 0,2.23729 -0.22881,3.93066 -0.50848,3.76305 -0.27966,-0.16761 -3.02542,-0.68603 -6.10169,-1.15204 z m 101.96241,-11.25508 c -0.13261,-1.3983 -0.0897,-3.69869 0.0954,-5.11197 0.18509,-1.41327 -1.00867,-3.08573 -2.65261,-3.71658 -4.19294,-1.60899 -5.89993,-6.93416 -2.22272,-6.93416 1.64286,0 2.98702,0.9552 2.98702,2.12267 0,1.16746 2.28813,4.59031 5.08474,7.60633 2.79661,3.01602 5.08475,6.17946 5.08475,7.02988 0,2.65364 -8.12217,1.68773 -8.37657,-0.99617 z m -10.74207,-2.74576 c -0.74453,-1.94022 -0.43845,-4.44292 0.68019,-5.56156 1.35594,-1.35594 2.48514,-0.85801 3.3876,1.49376 0.74453,1.94022 0.43845,4.44292 -0.68019,5.56156 -1.35594,1.35594 -2.48514,0.85801 -3.3876,-1.49376 z M 357.77689,149.51516 c 0.69136,-1.11864 2.11826,-2.03389 3.17088,-2.03389 1.05263,0 1.91386,0.91525 1.91386,2.03389 0,1.11865 -1.4269,2.0339 -3.17089,2.0339 -1.74398,0 -2.60522,-0.91525 -1.91385,-2.0339 z m 98.64406,-0.44054 c 0,-1.54971 1.99237,-2.65741 4.57627,-2.5443 6.385,0.27951 6.82607,3.86348 0.57171,4.64536 -3.28273,0.41039 -5.14798,-0.35088 -5.14798,-2.10106 z m -82.37288,-7.69505 c 0.69137,-1.11864 1.66064,-2.0339 2.15394,-2.0339 0.4933,0 0.89691,0.91526 0.89691,2.0339 0,1.11864 -0.96927,2.0339 -2.15394,2.0339 -1.18466,0 -1.58827,-0.91526 -0.89691,-2.0339 z m 193.98445,119.97545 c -2.21744,-17.45768 -4.45903,-24.9359 -7.80927,-26.05265 -1.99625,-0.66541 -2.32123,0.13871 -1.17928,2.91832 3.60879,8.7841 5.44534,20.67561 4.51717,29.24816 -0.54429,5.02707 -0.002,10.97622 1.20411,13.22034 2.11179,3.92783 2.24506,3.88939 3.56853,-1.02909 0.75617,-2.81009 0.62059,-11.04738 -0.30126,-18.30508 z m 3.77598,-22.85681 c -0.42822,-4.75424 -0.77858,-0.86441 -0.77858,8.64407 0,9.50847 0.35036,13.3983 0.77858,8.64407 0.42819,-4.75424 0.42819,-12.5339 0,-17.28814 z m -2.17613,-18.30508 c -0.56423,-1.39831 -1.02588,-0.25424 -1.02588,2.54237 0,2.79661 0.46165,3.94068 1.02588,2.54237 0.56422,-1.3983 0.56422,-3.68644 0,-5.08474 z M 359.06554,136.47115 c 3.36397,-4.15432 3.40373,-4.12202 2.29682,1.86589 -1.10853,5.99683 -1.06073,6.03515 3.01666,2.4185 4.50645,-3.99722 4.08092,-10.55684 -0.8065,-12.43232 -1.65197,-0.63392 -2.40787,-0.24736 -1.71344,0.87626 0.68343,1.10583 -0.15207,2.0106 -1.8567,2.0106 -1.70463,0 -4.07898,1.83051 -5.27634,4.0678 -1.25089,2.3373 -4.25862,4.06779 -7.07018,4.06779 -2.69123,0 -5.4253,0.86104 -6.0757,1.91343 -2.39408,3.8737 14.13708,-0.65295 17.48538,-4.78795 z m 16.58954,-11.36557 c 0.58545,-2.23883 0.23459,-3.5577 -0.77974,-2.93081 -1.01433,0.62688 -1.84422,2.45865 -1.84422,4.0706 0,4.20966 1.38204,3.60933 2.62396,-1.13979 z m -5.2087,0.80789 c -0.67586,-0.67585 -2.4301,-0.74811 -3.89831,-0.16058 -1.6225,0.64928 -1.14057,1.13122 1.22882,1.22882 2.14406,0.0883 3.34534,-0.3924 2.66949,-1.06825 z M 119.25735,383.41582 c -32.972117,-4.92877 -58.310615,-31.90501 -66.866895,-71.1888 -4.766856,-21.8857 -4.67003,-67.68048 0.182764,-86.44067 11.297587,-43.6748 34.157174,-67.69355 70.863631,-74.45698 23.77773,-4.38122 46.42577,2.19964 68.06885,19.77881 l 6.61017,5.36899 v -55.80413 c 0,-44.984814 0.55971,-56.569564 2.8869,-59.752174 2.56613,-3.50939 5.46925,-3.94807 26.12807,-3.94807 16.70908,0 24.1865,0.78455 26.60465,2.79142 3.07519,2.55219 3.36343,16.16997 3.36343,158.903484 0,141.05207 -0.31602,156.37436 -3.27592,158.83086 -2.18556,1.81385 -9.21878,2.71877 -21.13086,2.71877 -22.84486,0 -24.40678,-1.2036 -24.40678,-18.80782 v -13.37028 l -6.61016,6.29427 c -10.90052,10.37959 -29.78265,22.58904 -39.8585,25.77309 -12.56473,3.97053 -29.38571,5.27845 -42.55935,3.30923 z m 47.36061,-52.61361 c 4.48971,-2.03959 13.41343,-9.08579 19.83052,-15.65823 l 11.66739,-11.94989 v -36.57018 -36.57018 l -12.25938,-11.92188 c -14.132,-13.74297 -22.30762,-17.76923 -36.08173,-17.76923 -18.17619,0 -32.65893,14.25567 -39.10528,38.49219 -6.28637,23.63504 -1.02696,65.79962 10.16874,81.52253 10.02429,14.07781 28.48488,18.28161 45.77974,10.42487 z m 527.23716,48.82025 c -5.32647,-0.81726 -11.14442,-2.94588 -12.92878,-4.73024 -3.88523,-3.88523 -59.40093,-191.34062 -61.12448,-206.39416 l -1.20319,-10.50862 7.89419,-2.1919 c 10.01256,-2.78008 32.04757,-2.82714 41.90493,-0.0895 9.00432,2.50074 6.87503,-3.53703 33.22522,94.21242 12.27046,45.51892 18.51274,65.63515 19.56531,63.05084 0.85014,-2.08733 9.40452,-34.91377 19.00972,-72.94767 22.63202,-89.61649 19.85919,-81.82179 30.09643,-84.60356 12.46137,-3.38612 39.61999,-1.17833 44.07396,3.58288 2.0638,2.20616 11.61295,34.09104 23.35111,77.96983 17.64974,65.97722 23.17775,84.54628 23.38531,78.55312 0.0543,-1.57113 37.24426,-145.22411 39.93857,-154.27046 1.60995,-5.40554 15.8933,-8.27863 35.25797,-7.09214 20.36573,1.24783 22.80256,3.1945 20.30764,16.22291 -0.90795,4.74126 -14.47879,52.09504 -30.15745,105.23063 -21.23762,71.97519 -29.56848,97.47382 -32.67093,99.99712 -9.17359,7.46119 -62.72341,6.49037 -68.37569,-1.23958 -1.28681,-1.75981 -5.82472,-15.77644 -10.08425,-31.14807 -4.25954,-15.37166 -12.44825,-44.81183 -18.19715,-65.42262 l -10.45253,-37.47419 -10.45556,40.52504 c -5.75056,22.28876 -13.37249,52.25809 -16.93765,66.59849 -4.98555,20.05385 -7.49412,26.73661 -10.86565,28.94571 -5.17355,3.38984 -40.045,5.45034 -54.55705,3.22371 z m 314.76928,0.0225 c -4.4746,-0.80239 -9.27973,-2.16724 -10.67803,-3.03303 -3.9641,-2.45447 -3.6787,-215.48616 0.2931,-218.78249 7.00993,-5.81764 38.79593,-5.03638 44.93673,1.10449 2.0642,2.06418 3.0752,7.10642 3.0752,15.33735 v 12.26219 l 11.481,-10.49299 c 36.5057,-33.36418 88.4337,-34.71338 116.3292,-3.02249 17.7058,20.11494 20.6644,39.07069 20.6644,132.4002 0,55.95757 -0.5004,68.03551 -2.9185,70.45363 -3.7571,3.75716 -24.2687,6.07222 -38.1421,4.30497 -19.3115,-2.45998 -17.652,4.56616 -18.3352,-77.63113 -0.5798,-69.74764 -0.784,-73.08061 -5.0421,-82.29832 -4.921,-10.65248 -13.2282,-16.8699 -25.2549,-18.90181 -10.9385,-1.84804 -24.717,4.82868 -38.9513,18.8748 l -11.6949,11.54034 v 71.68702 c 0,67.34355 -0.2252,71.80753 -3.7161,73.67579 -5.0478,2.70154 -32.0217,4.31912 -42.0465,2.52148 z m 255.185,-0.14156 c -3.9532,-0.77461 -8.3007,-2.09625 -9.661,-2.93697 -1.9071,-1.1787 -2.4733,-37.28408 -2.4733,-157.70356 0,-183.422204 -3.405,-163.610134 28.1494,-163.789004 15.7001,-0.089 21.0096,0.64048 25.347,3.48242 l 5.4867,3.59501 -0.031,155.037834 c -0.016,85.97925 -0.8302,156.29983 -1.8251,157.871 -3.1875,5.03373 -28.9798,7.58083 -44.9925,4.44319 z m 117.9661,0.1318 c -3.9532,-0.84708 -8.3007,-2.22801 -9.661,-3.06873 -1.8914,-1.16904 -2.4733,-26.8466 -2.4733,-109.13371 0,-122.0114 -1.8419,-110.35227 17.8458,-112.96393 14.6501,-1.9434 32.4891,0.63546 37.2367,5.38304 3.7426,3.74261 3.9006,8.09176 3.9006,107.40405 0,121.78118 2.0874,111.69188 -23.3899,113.05118 -8.9491,0.47748 -19.5056,0.17512 -23.4589,-0.67202 z m 118.0352,0.35862 c -15.1108,-2.05097 -14.2373,4.86264 -14.2373,-112.68254 0,-91.25991 0.4101,-105.71228 3.0752,-108.37735 6.1408,-6.14087 37.9269,-6.92213 44.9368,-1.10449 1.889,1.56779 2.8355,6.73717 2.8355,15.48725 v 13.13398 l 11.6949,-10.44214 c 41.0334,-36.63789 98.205,-34.11489 123.1721,5.43562 11.7698,18.64455 12.286,23.04349 13.1228,111.82136 0.8751,92.85201 2.5786,84.3615 -17.4378,86.91128 -13.8733,1.76725 -34.3849,-0.54781 -38.1421,-4.30497 -2.4217,-2.4217 -2.9184,-14.77526 -2.9184,-72.58033 0,-77.07521 -0.918,-83.96817 -12.4775,-93.69494 -7.3017,-6.14392 -19.9294,-9.81771 -27.6158,-8.03429 -9.5841,2.22373 -21.6272,10.17651 -31.6716,20.91484 l -9.591,10.2536 v 71.20201 c 0,66.87383 -0.2259,71.3229 -3.7161,73.19077 -4.438,2.37516 -30.9917,4.23278 -41.0297,2.87034 z m 256.2712,0.0102 c -15.3658,-2.10873 -14.2373,10.78167 -14.2373,-162.62215 V 62.150776 l 5.4867,-3.59501 c 4.3229,-2.8325 9.6075,-3.56761 24.9152,-3.46587 11.0897,0.0737 21.384,1.18612 23.9844,2.59177 l 4.5558,2.46264 0.5289,92.990234 0.529,92.99079 33.2088,-44.2382 c 24.2552,-32.31084 34.6743,-44.64922 38.6441,-45.7627 2.9894,-0.83849 14.6762,-1.52452 25.9706,-1.52452 22.813,0 27.2612,1.84047 27.2612,11.27943 0,6.44231 -0.667,7.3157 -38.6114,50.55661 -15.1196,17.23017 -27.2785,32.052 -27.0196,32.93743 0.2589,0.88542 15.4496,24.77105 33.7573,53.0792 36.1366,55.87626 40.0093,62.49776 40.0093,68.40746 0,7.67817 -5.3495,9.38613 -29.5859,9.44589 -20.1033,0.0496 -23.7018,-0.47054 -28.6109,-4.13516 -3.0884,-2.30551 -21.2321,-28.72658 -40.3194,-58.71348 l -34.7041,-54.52165 -0.5406,56.11672 c -0.5115,53.10307 -0.7518,56.2298 -4.475,58.22239 -4.5535,2.43695 -30.3084,4.16239 -40.7471,2.72982 z M 1375.9668,120.23617 c -7.4887,-4.15065 -10.2427,-11.15361 -10.3213,-26.245734 -0.1277,-24.49673 7.2457,-30.99025 34.994,-30.81848 12.5812,0.0779 16.8716,0.93413 21.356,4.26206 15.4068,11.43356 12.8451,47.589674 -3.7824,53.386064 -8.9253,3.11136 -36.2609,2.73353 -42.2463,-0.58391 z M 529.38185,70.701616 c -2.42773,-3.09559 -2.39392,-3.2566 0.25944,-1.23581 1.67797,1.27792 4.88136,2.77345 7.11864,3.32338 3.86366,0.9497 3.85064,1.01172 -0.25944,1.23582 -2.37997,0.12976 -5.58336,-1.36577 -7.11864,-3.32339 z m 3.32469,-2.51908 c -0.71256,-1.15293 0.10393,-1.49391 1.91385,-0.79934 3.52357,1.35211 4.16825,2.80994 1.24263,2.80994 -1.05262,0 -2.47305,-0.90477 -3.15648,-2.0106 z m 4.00133,-7.99485 c 0.89265,-2.8125 0.0468,-4.28214 -3.02575,-5.25734 -5.80552,-1.8426 -4.07925,-5.64284 3.73828,-8.22951 4.05728,-1.34247 5.74515,-2.8541 4.54206,-4.06779 -2.72105,-2.745 6.11457,-19.44267 11.30392,-21.36234 6.71609,-2.48445 9.67645,0.7443 8.32399,9.07864 -0.65538,4.03864 -2.62051,8.77188 -4.36696,10.51832 -1.74643,1.74645 -3.17534,4.13198 -3.17534,5.30119 0,1.16921 -1.82056,1.64975 -4.04571,1.06786 -3.75004,-0.98066 -3.82436,-0.74196 -1.01695,3.26618 1.66582,2.37829 3.02876,6.02375 3.02876,8.10101 0,3.13838 -1.03149,3.5503 -6.10169,2.43669 -3.83897,-0.84318 -6.1017,-0.52598 -6.1017,0.85535 0,1.20752 -0.97692,2.1955 -2.17096,2.1955 -1.21497,0 -1.62535,-1.71903 -0.93195,-3.90376 z m 31.24153,-10.3835 c -6.92699,-3.65928 -7.28687,-4.29956 -5.08475,-9.04678 2.68373,-5.78542 3.97658,-6.21244 7.86622,-2.59816 1.50485,1.3983 4.08716,2.83656 5.73851,3.19612 5.16097,1.12376 6.51532,3.83507 4.13623,8.28043 -2.76122,5.15938 -3.19728,5.16518 -12.65621,0.16839 z m 7.24509,-4.35681 c -0.57612,-0.9322 -1.90875,-1.69491 -2.96138,-1.69491 -1.05262,0 -1.91386,0.76271 -1.91386,1.69491 0,0.93221 1.33263,1.69492 2.96138,1.69492 1.62877,0 2.49,-0.76271 1.91386,-1.69492 z m -46.42991,-15.66016 c -6.07328,-3.56406 -9.26469,-8.40763 -5.53975,-8.40763 1.13196,0 3.38739,1.32929 5.01209,2.95399 2.95719,2.95717 5.47217,2.2227 5.47217,-1.59806 0,-1.11865 -0.57798,-1.45593 -1.28437,-0.74953 -0.70641,0.70641 -3.09281,0.31653 -5.30311,-0.86639 -2.64766,-1.41698 -3.33288,-2.8366 -2.00847,-4.16102 2.58368,-2.58369 19.4423,5.74814 17.6146,8.70544 -0.71199,1.15202 -2.80363,1.52033 -4.64811,0.81847 -2.68798,-1.02283 -2.84898,-0.76777 -0.81122,1.28507 6.2412,6.28737 0.92143,7.55082 -8.50383,2.01966 z"
       id="path58" />
  </g>
</svg>
