<svg width="1280" height="720" xmlns="http://www.w3.org/2000/svg" xmlns:xlink="http://www.w3.org/1999/xlink" overflow="hidden"><defs><clipPath id="clip0"><rect x="0" y="0" width="1280" height="720"/></clipPath><clipPath id="clip1"><path d="M-28.8126 157.668 60.7917-60.6603 243.965 14.5161 154.361 232.844Z" fill-rule="evenodd" clip-rule="evenodd"/></clipPath><clipPath id="clip2"><path d="M-28.8126 157.668 60.7917-60.6603 243.965 14.5161 154.361 232.844Z" fill-rule="evenodd" clip-rule="evenodd"/></clipPath><clipPath id="clip3"><path d="M-28.8126 157.668 60.7917-60.6603 243.965 14.5161 154.361 232.844Z" fill-rule="evenodd" clip-rule="evenodd"/></clipPath></defs><g clip-path="url(#clip0)"><rect x="0" y="0" width="1280" height="720" fill="#FFFFFF"/><text fill="#333F50" font-family="Calibri,Calibri_MSFontService,sans-serif" font-weight="700" font-size="59" transform="translate(260.037 86)">Building/Site Change Detection<tspan fill="#222A35" font-family="Arial,Arial_MSFontService,sans-serif" font-weight="400" font-size="37" x="-162.437" y="174">•</tspan><tspan fill="#222A35" font-weight="400" font-size="37" x="-138.437" y="174">Monitor for changes using the lats/longs of known plants and projects. </tspan><tspan fill="#222A35" font-family="Arial,Arial_MSFontService,sans-serif" font-weight="400" font-size="32" x="-114.437" y="217">•</tspan><tspan fill="#222A35" font-weight="400" font-size="32" x="-90.4366" y="217">Detect construction phases (site prep, kickoff) of known projects.</tspan><tspan fill="#222A35" font-family="Arial,Arial_MSFontService,sans-serif" font-weight="400" font-size="32" x="-114.437" y="258">•</tspan><tspan fill="#222A35" font-weight="400" font-size="32" x="-90.4366" y="258">Detect unknown plant additions/expansions.</tspan><tspan fill="#222A35" font-family="Arial,Arial_MSFontService,sans-serif" font-weight="400" font-size="32" x="-114.437" y="300">•</tspan><tspan fill="#222A35" font-weight="400" font-size="32" x="-90.4366" y="300">Sites revisited </tspan><tspan fill="#222A35" font-size="32" x="96.13" y="300">at least once every 5</tspan><tspan fill="#222A35" font-size="32" x="368.657" y="300">-</tspan><tspan fill="#222A35" font-size="32" x="378.49" y="300">6 days.</tspan></text><path d="M356.6 390.059 543.6 390.059 730.6 390.059 730.6 392.059 543.6 392.059 356.6 392.059Z" fill="#222A35" fill-rule="evenodd"/><text fill="#222A35" font-family="Arial,Arial_MSFontService,sans-serif" font-weight="400" font-size="37" transform="translate(97.6 479)">•<tspan font-family="Calibri,Calibri_MSFontService,sans-serif" font-size="37" x="24" y="0">Monitor for post</tspan><tspan font-family="Calibri,Calibri_MSFontService,sans-serif" font-size="37" x="274.927" y="0">-</tspan><tspan font-family="Calibri,Calibri_MSFontService,sans-serif" font-size="37" x="286.427" y="0">disaster structural damages and flooding.</tspan><tspan font-size="32" x="48" y="43">•</tspan><tspan font-family="Calibri,Calibri_MSFontService,sans-serif" font-size="32" x="72" y="43">Areas affected by flooding.</tspan><tspan font-size="32" x="48" y="84">•</tspan><tspan font-family="Calibri,Calibri_MSFontService,sans-serif" font-size="32" x="72" y="84">Structural Damages due to earthquakes, hurricanes, and tornadoes.</tspan><tspan fill="#0563C1" font-family="Calibri,Calibri_MSFontService,sans-serif" font-size="24" x="0" y="210">https://doi.org/10.1016/j.rse.2020.111802</tspan></text><path d="M97.6 692.079 236.6 692.079 375.6 692.079 514.6 692.079 514.6 694.079 375.6 694.079 236.6 694.079 97.6 694.079Z" fill="#0563C1" fill-rule="evenodd"/><g clip-path="url(#clip1)"><g clip-path="url(#clip2)"><g clip-path="url(#clip3)"><path d="M155.335 200.388C141.867 205.152 141.405 204.819 151.787 197.833 158.352 193.416 167.882 183.748 172.962 176.351 181.738 163.576 181.915 163.704 176.509 178.906 173.379 187.709 163.85 197.376 155.335 200.388ZM152.266 185.038C147.537 186.116 147.667 182.709 152.571 177.051 162.121 166.036 167.72 165.601 163.365 176.213 161.797 180.032 156.804 184.003 152.266 185.038ZM132.779 160.08C125.157 153.167 119.22 154.316 111.542 164.188 97.0339 182.842 87.5089 171.616 90.915 139.879 92.6826 123.406 90.3846 115.309 84.731 118.089 71.9434 124.373 31.9543 70.5111 33.5704 49.1793 35.6621 21.5711 50.3454 15.0498 74.8575 30.842 86.7353 38.4949 98.8745 51.8056 101.833 60.4218 104.791 69.0382 110.255 77.3386 113.977 78.866 117.698 80.3931 116.517 87.6242 111.353 94.937 102.649 107.259 103.298 107.84 120.234 102.892 130.283 99.9552 143.915 99.7733 150.526 102.487 160.514 106.586 160.29 110.865 149.197 127.804 140.798 140.628 138.438 149.25 142.836 151.055 146.679 152.632 148.368 157.466 146.591 161.798 144.782 166.206 138.7 165.449 132.779 160.08ZM146.243 33.186C124.284 53.5343 121.711 54.0037 109.88 39.8143 95.4622 22.5222 96.0282 17.2742 113.322 7.88513 120.013 4.25269 128.435-3.23547 132.04-8.76062 143.297-26.0079 153.943-27.3786 164.548-12.9409 176.861 3.80817 176.23 5.39771 146.243 33.186ZM143.165 1.21002C139.34 2.08325 134.928 5.92346 133.36 9.74231 131.793 13.5603 132.939 17.6808 135.906 18.8984 138.872 20.116 143.284 16.2785 145.709 10.3698 148.134 4.46014 146.99 0.336975 143.165 1.21002ZM24.1975 149.185C3.81296 166.561-16.354 171.811-10.8084 158.299-9.12305 154.192-1.53491 147.747 6.0549 143.976 19.8698 137.111 21.2764 127.028 9.11603 122.037 5.55569 120.576 3.62149 122.233 4.81805 125.718 6.01456 129.203 1.22107 137.35-5.83447 143.823-14.286 151.577-19.8244 152.208-22.068 145.674-26.4445 132.927 25.1721 82.6543 31.8629 93.1474 34.4691 97.235 32.5284 105.303 27.548 111.078 20.2907 119.492 20.8634 120.41 30.4302 115.699 59.7324 101.271 55.8338 122.22 24.1975 149.185Z" stroke="#FFFFFF" stroke-width="7.47024" fill="#333F50"/></g></g></g></g></svg>