<svg width="1280" height="720" xmlns="http://www.w3.org/2000/svg" xmlns:xlink="http://www.w3.org/1999/xlink" overflow="hidden"><defs><clipPath id="clip0"><rect x="0" y="0" width="1280" height="720"/></clipPath><clipPath id="clip1"><path d="M1300.11 526.815 1241.88 755.518 1050 706.661 1108.24 477.958Z" fill-rule="evenodd" clip-rule="evenodd"/></clipPath><clipPath id="clip2"><path d="M1300.11 526.815 1241.88 755.518 1050 706.661 1108.24 477.958Z" fill-rule="evenodd" clip-rule="evenodd"/></clipPath><clipPath id="clip3"><path d="M1300.11 526.815 1241.88 755.518 1050 706.661 1108.24 477.958Z" fill-rule="evenodd" clip-rule="evenodd"/></clipPath></defs><g clip-path="url(#clip0)"><rect x="0" y="0" width="1280" height="720" fill="#FFFFFF"/><text fill="#333F50" font-family="Calibri,Calibri_MSFontService,sans-serif" font-weight="700" font-size="59" transform="translate(479.607 86)">Basic Process</text><g clip-path="url(#clip1)"><g clip-path="url(#clip2)"><g clip-path="url(#clip3)"><path d="M1111.81 510.232C1124.48 503.634 1124.98 503.9 1115.68 512.267 1109.79 517.557 1101.71 528.461 1097.71 536.495 1090.8 550.372 1090.61 550.269 1093.84 534.461 1095.71 525.307 1103.79 514.404 1111.81 510.232ZM1116.99 525.003C1121.52 523.275 1121.87 526.667 1117.8 532.955 1109.88 545.196 1104.4 546.408 1107.23 535.292 1108.25 531.292 1112.64 526.662 1116.99 525.003ZM1139.77 546.995C1148.28 552.775 1154 550.808 1160.23 539.961 1171.99 519.464 1182.98 529.25 1184.04 561.151 1184.6 577.709 1188 585.406 1193.21 581.864 1205 573.855 1252.12 621.604 1253.49 642.953 1255.28 670.583 1241.65 679.091 1215.17 666.877 1202.34 660.958 1188.46 649.473 1184.33 641.354 1180.2 633.236 1173.63 625.78 1169.73 624.787 1165.83 623.795 1165.99 616.469 1170.08 608.507 1176.98 595.09 1176.26 594.606 1160.18 601.871 1150.64 606.182 1137.17 608.266 1130.24 606.503 1119.78 603.838 1119.4 599.57 1128.02 581.248 1134.55 567.376 1135.68 558.509 1131.07 557.336 1127.05 556.311 1124.7 551.76 1125.85 547.223 1127.03 542.605 1133.16 542.505 1139.77 546.995ZM1144.16 674.526C1163.06 651.31 1165.54 650.486 1179.24 662.884 1195.93 677.993 1196.11 683.268 1180.29 694.981 1174.17 699.512 1166.88 708.103 1164.08 714.078 1155.34 732.728 1144.99 735.572 1132.48 722.757 1117.95 707.892 1118.35 706.23 1144.16 674.526ZM1151.67 705.758C1155.34 704.36 1159.17 699.941 1160.19 695.94 1161.21 691.941 1159.5 688.021 1156.39 687.23 1153.28 686.438 1149.45 690.854 1147.88 697.044 1146.3 703.234 1148.01 707.157 1151.67 705.758ZM1248.81 542.618C1266.57 522.566 1285.8 514.55 1282.2 528.705 1281.1 533.007 1274.49 540.448 1267.5 545.242 1254.78 553.97 1254.8 564.15 1267.53 567.394 1271.26 568.343 1272.95 566.433 1271.28 563.149 1269.6 559.865 1273.21 551.128 1279.3 543.733 1286.58 534.875 1291.98 533.476 1295.11 539.633 1301.22 551.644 1257.14 608.633 1249.04 599.177 1245.89 595.494 1246.69 587.233 1250.81 580.82 1256.82 571.474 1256.13 570.646 1247.31 576.646 1220.31 595.025 1221.25 573.738 1248.81 542.618Z" stroke="#FFFFFF" stroke-width="7.47024" fill="#333F50"/></g></g></g><rect x="58.5001" y="323.5" width="176" height="139" stroke="#2F528F" stroke-width="2.66667" stroke-miterlimit="8" fill="none"/><text font-family="Calibri,Calibri_MSFontService,sans-serif" font-weight="400" font-size="24" transform="translate(101.964 400)">Get Data</text><path d="M234.5 391.167 379.833 391.167 379.833 393.833 234.5 393.833ZM378.5 388.5 386.5 392.5 378.5 396.5Z" fill="#4472C4"/><rect x="386.5" y="323.5" width="176" height="139" stroke="#2F528F" stroke-width="2.66667" stroke-miterlimit="8" fill="none"/><text font-family="Calibri,Calibri_MSFontService,sans-serif" font-weight="400" font-size="24" transform="translate(412.133 371)">Locate Likely <tspan font-size="24" x="19.3" y="29">Property</tspan><tspan font-size="24" x="6.52667" y="58">Boundaries</tspan></text><path d="M562.5 391.167 707.833 391.167 707.833 393.833 562.5 393.833ZM706.5 388.5 714.5 392.5 706.5 396.5Z" fill="#4472C4"/><rect x="714.5" y="328.5" width="175" height="139" stroke="#2F528F" stroke-width="2.66667" stroke-miterlimit="8" fill="none"/><rect x="688.5" y="513.5" width="227" height="118" stroke="#2F528F" stroke-width="2.66667" stroke-miterlimit="8" fill="none"/><text font-family="Calibri,Calibri_MSFontService,sans-serif" font-weight="400" font-size="24" transform="translate(732.569 557)">Land Classifier<tspan font-size="19" x="-18.4467" y="24">(road, water, crop, etc.)</tspan></text><path d="M1.33333-3.06863e-06 1.33342 38.9507-1.33324 38.9507-1.33333 3.06863e-06ZM4.00009 37.6173 0.000104987 45.6173-3.99991 37.6173Z" fill="#4472C4" transform="matrix(1 0 0 -1 801.5 513.117)"/><rect x="1038.5" y="328.5" width="176" height="139" stroke="#2F528F" stroke-width="2.66667" stroke-miterlimit="8" fill="none"/><text font-family="Calibri,Calibri_MSFontService,sans-serif" font-weight="400" font-size="24" transform="translate(739.337 185)">Vegetation &amp;<tspan font-size="24" x="-13.0267" y="29">Non</tspan><tspan font-size="24" x="27.8067" y="29">-</tspan><tspan font-size="24" x="35.14" y="29">Permeable </tspan><tspan font-size="24" x="27.3" y="58">Surface </tspan><tspan font-size="24" x="6.23334" y="87">Coefficients</tspan></text><rect x="688.5" y="163.5" width="227" height="118" stroke="#2F528F" stroke-width="2.66667" stroke-miterlimit="8" fill="none"/><path d="M802.833 281.5 802.833 321.221 800.167 321.221 800.167 281.5ZM805.5 319.887 801.5 327.887 797.5 319.887Z" fill="#4472C4"/><path d="M9.40118e-07-1.33333 142.232-1.33323 142.232 1.33343-9.40118e-07 1.33333ZM140.899-3.9999 148.899 0.000104987 140.899 4.0001Z" fill="#4472C4" transform="matrix(1 0 0 -1 889.5 397.5)"/><text font-family="Calibri,Calibri_MSFontService,sans-serif" font-weight="400" font-size="24" transform="translate(730.598 390)">Calculate Land <tspan font-size="24" x="34.4467" y="29">Change</tspan><tspan font-size="24" x="318.616" y="15">Detect Changes</tspan></text></g></svg>