<svg width="1280" height="720" xmlns="http://www.w3.org/2000/svg" xmlns:xlink="http://www.w3.org/1999/xlink" overflow="hidden"><defs><clipPath id="clip0"><rect x="0" y="0" width="1280" height="720"/></clipPath><clipPath id="clip1"><path d="M1116.14-36.5761 1337.2 46.065 1267.86 231.529 1046.8 148.887Z" fill-rule="evenodd" clip-rule="evenodd"/></clipPath><clipPath id="clip2"><path d="M1116.14-36.5761 1337.2 46.065 1267.86 231.529 1046.8 148.887Z" fill-rule="evenodd" clip-rule="evenodd"/></clipPath><clipPath id="clip3"><path d="M1116.14-36.5761 1337.2 46.065 1267.86 231.529 1046.8 148.887Z" fill-rule="evenodd" clip-rule="evenodd"/></clipPath></defs><g clip-path="url(#clip0)"><rect x="0" y="0" width="1280" height="720" fill="#FFFFFF"/><text fill="#333F50" font-family="Calibri,Calibri_MSFontService,sans-serif" font-weight="700" font-size="59" transform="translate(260.037 86)">Building/Site Change Detection<tspan fill="#222A35" font-family="Arial,Arial_MSFontService,sans-serif" font-weight="400" font-size="37" x="-162.437" y="174">•</tspan><tspan fill="#222A35" font-weight="400" font-size="37" x="-138.437" y="174">Monitor for changes using the lats/longs of known plants and projects. </tspan><tspan fill="#222A35" font-family="Arial,Arial_MSFontService,sans-serif" font-weight="400" font-size="32" x="-114.437" y="217">•</tspan><tspan fill="#222A35" font-weight="400" font-size="32" x="-90.4366" y="217">Detect construction phases (site prep, kickoff) of known projects.</tspan><tspan fill="#222A35" font-family="Arial,Arial_MSFontService,sans-serif" font-weight="400" font-size="32" x="-114.437" y="258">•</tspan><tspan fill="#222A35" font-weight="400" font-size="32" x="-90.4366" y="258">Detect unknown plant additions/expansions.</tspan><tspan fill="#222A35" font-family="Arial,Arial_MSFontService,sans-serif" font-weight="400" font-size="32" x="-114.437" y="300">•</tspan><tspan fill="#222A35" font-weight="400" font-size="32" x="-90.4366" y="300">Sites revisited </tspan><tspan fill="#222A35" font-size="32" x="96.13" y="300">at least once every 5</tspan><tspan fill="#222A35" font-size="32" x="368.657" y="300">-</tspan><tspan fill="#222A35" font-size="32" x="378.49" y="300">6 days.</tspan></text><path d="M356.6 390.059 543.6 390.059 730.6 390.059 730.6 392.059 543.6 392.059 356.6 392.059Z" fill="#222A35" fill-rule="evenodd"/><text fill="#222A35" font-family="Arial,Arial_MSFontService,sans-serif" font-weight="400" font-size="37" transform="translate(97.6 479)">•<tspan font-family="Calibri,Calibri_MSFontService,sans-serif" font-size="37" x="24" y="0">Monitor for post</tspan><tspan font-family="Calibri,Calibri_MSFontService,sans-serif" font-size="37" x="274.927" y="0">-</tspan><tspan font-family="Calibri,Calibri_MSFontService,sans-serif" font-size="37" x="286.427" y="0">disaster structural damages and flooding.</tspan><tspan font-size="32" x="48" y="43">•</tspan><tspan font-family="Calibri,Calibri_MSFontService,sans-serif" font-size="32" x="72" y="43">Areas affected by flooding.</tspan><tspan font-size="32" x="48" y="84">•</tspan><tspan font-family="Calibri,Calibri_MSFontService,sans-serif" font-size="32" x="72" y="84">Structural Damages due to earthquakes, hurricanes, and tornadoes.</tspan><tspan fill="#0563C1" font-family="Calibri,Calibri_MSFontService,sans-serif" font-size="24" x="0" y="210">https://doi.org/10.1016/j.rse.2020.111802</tspan></text><path d="M97.6 692.079 236.6 692.079 375.6 692.079 514.6 692.079 514.6 694.079 375.6 694.079 236.6 694.079 97.6 694.079Z" fill="#0563C1" fill-rule="evenodd"/><g clip-path="url(#clip1)"><g clip-path="url(#clip2)"><g clip-path="url(#clip3)"><path d="M1079.27 148.832C1074.09 135.523 1074.4 135.051 1081.72 145.205 1086.34 151.627 1096.3 160.846 1103.86 165.689 1116.91 174.056 1116.78 174.237 1101.42 169.316 1092.52 166.466 1082.55 157.248 1079.27 148.832ZM1094.52 145.279C1093.29 140.586 1096.7 140.608 1102.51 145.331 1113.82 154.526 1114.44 160.109 1103.69 156.092 1099.83 154.647 1095.7 149.781 1094.52 145.279ZM1118.85 125.01C1125.52 117.173 1124.18 111.276 1114.07 103.914 1094.96 90.0048 1105.88 80.1289 1137.71 82.5276 1154.23 83.7724 1162.25 81.219 1159.29 75.6562 1152.61 63.0742 1205.18 21.3985 1226.55 22.3379 1254.21 23.5537 1261.19 38.023 1246.19 63.0231 1238.91 75.1375 1225.99 87.6924 1217.47 90.922 1208.96 94.1516 1200.83 99.8766 1199.42 103.645 1198.02 107.412 1190.75 106.461 1183.28 101.531 1170.69 93.2217 1170.13 93.8888 1175.61 110.659 1178.86 120.611 1179.48 134.23 1176.97 140.924 1173.19 151.037 1168.91 150.948 1151.63 140.398 1138.54 132.409 1129.85 130.324 1128.19 134.776 1126.73 138.667 1121.95 140.509 1117.57 138.87 1113.1 137.201 1113.67 131.098 1118.85 125.01ZM1246.1 134.447C1225.07 113.144 1224.52 110.587 1238.33 98.3128 1255.15 83.3539 1260.42 83.7533 1270.35 100.741 1274.19 107.314 1281.94 115.494 1287.58 118.922 1305.18 129.627 1306.88 140.224 1292.79 151.281 1276.44 164.119 1274.83 163.539 1246.1 134.447ZM1277.97 130.358C1276.97 126.562 1272.99 122.274 1269.13 120.828 1265.26 119.383 1261.18 120.658 1260.06 123.662 1258.93 126.666 1262.91 130.954 1268.89 133.19 1274.88 135.427 1278.96 134.153 1277.97 130.358ZM1126.3 16.1385C1108.28-3.68518 1102.4-23.6757 1116.08-18.5611 1120.24-17.0067 1126.92-9.6265 1130.93-2.16006 1138.23 11.4304 1148.35 12.5168 1152.95 0.204376 1154.3-3.40045 1152.58-5.28122 1149.14-3.97476 1145.69-2.66846 1137.4-7.20142 1130.7-14.0483 1122.69-22.2499 1121.88-27.7655 1128.34-30.215 1140.94-34.9932 1192.82 15.0045 1182.55 22.0244 1178.55 24.7588 1170.42 23.0747 1164.49 18.2798 1155.85 11.2928 1154.95 11.8943 1159.96 21.307 1175.31 50.1373 1154.25 46.9044 1126.3 16.1385Z" stroke="#FFFFFF" stroke-width="7.47024" fill="#333F50"/></g></g></g><rect x="7.50005" y="4.50005" width="1266" height="712" stroke="#333F50" stroke-width="9" stroke-miterlimit="8" fill="none"/><text fill="#FFFFFF" font-family="Calibri,Calibri_MSFontService,sans-serif" font-weight="400" font-size="24" transform="translate(600.152 367)">#f75814</text></g></svg>