<svg width="1280" height="720" xmlns="http://www.w3.org/2000/svg" xmlns:xlink="http://www.w3.org/1999/xlink" overflow="hidden"><defs><clipPath id="clip0"><rect x="0" y="0" width="1280" height="720"/></clipPath><clipPath id="clip1"><path d="M1116.14-36.5761 1337.2 46.065 1267.86 231.529 1046.8 148.887Z" fill-rule="evenodd" clip-rule="evenodd"/></clipPath><clipPath id="clip2"><path d="M1116.14-36.5761 1337.2 46.065 1267.86 231.529 1046.8 148.887Z" fill-rule="evenodd" clip-rule="evenodd"/></clipPath><clipPath id="clip3"><path d="M1116.14-36.5761 1337.2 46.065 1267.86 231.529 1046.8 148.887Z" fill-rule="evenodd" clip-rule="evenodd"/></clipPath></defs><g clip-path="url(#clip0)"><rect x="0" y="0" width="1280" height="720" fill="#FFFFFF"/><text fill="#333F50" font-family="Calibri,Calibri_MSFontService,sans-serif" font-weight="700" font-size="59" transform="translate(479.607 86)">Basic Process</text><g clip-path="url(#clip1)"><g clip-path="url(#clip2)"><g clip-path="url(#clip3)"><path d="M1079.27 148.832C1074.09 135.523 1074.4 135.051 1081.72 145.205 1086.34 151.627 1096.3 160.846 1103.86 165.689 1116.91 174.056 1116.78 174.237 1101.42 169.316 1092.52 166.466 1082.55 157.248 1079.27 148.832ZM1094.52 145.279C1093.29 140.586 1096.7 140.608 1102.51 145.331 1113.82 154.526 1114.44 160.109 1103.69 156.092 1099.83 154.647 1095.7 149.781 1094.52 145.279ZM1118.85 125.01C1125.52 117.173 1124.18 111.276 1114.07 103.914 1094.96 90.0048 1105.88 80.1289 1137.71 82.5276 1154.23 83.7724 1162.25 81.219 1159.29 75.6562 1152.61 63.0742 1205.18 21.3985 1226.55 22.3379 1254.21 23.5537 1261.19 38.023 1246.19 63.0231 1238.91 75.1375 1225.99 87.6924 1217.47 90.922 1208.96 94.1516 1200.83 99.8766 1199.42 103.645 1198.02 107.412 1190.75 106.461 1183.28 101.531 1170.69 93.2217 1170.13 93.8888 1175.61 110.659 1178.86 120.611 1179.48 134.23 1176.97 140.924 1173.19 151.037 1168.91 150.948 1151.63 140.398 1138.54 132.409 1129.85 130.324 1128.19 134.776 1126.73 138.667 1121.95 140.509 1117.57 138.87 1113.1 137.201 1113.67 131.098 1118.85 125.01ZM1246.1 134.447C1225.07 113.144 1224.52 110.587 1238.33 98.3128 1255.15 83.3539 1260.42 83.7533 1270.35 100.741 1274.19 107.314 1281.94 115.494 1287.58 118.922 1305.18 129.627 1306.88 140.224 1292.79 151.281 1276.44 164.119 1274.83 163.539 1246.1 134.447ZM1277.97 130.358C1276.97 126.562 1272.99 122.274 1269.13 120.828 1265.26 119.383 1261.18 120.658 1260.06 123.662 1258.93 126.666 1262.91 130.954 1268.89 133.19 1274.88 135.427 1278.96 134.153 1277.97 130.358ZM1126.3 16.1385C1108.28-3.68518 1102.4-23.6757 1116.08-18.5611 1120.24-17.0067 1126.92-9.6265 1130.93-2.16006 1138.23 11.4304 1148.35 12.5168 1152.95 0.204376 1154.3-3.40045 1152.58-5.28122 1149.14-3.97476 1145.69-2.66846 1137.4-7.20142 1130.7-14.0483 1122.69-22.2499 1121.88-27.7655 1128.34-30.215 1140.94-34.9932 1192.82 15.0045 1182.55 22.0244 1178.55 24.7588 1170.42 23.0747 1164.49 18.2798 1155.85 11.2928 1154.95 11.8943 1159.96 21.307 1175.31 50.1373 1154.25 46.9044 1126.3 16.1385Z" stroke="#FFFFFF" stroke-width="7.47024" fill="#333F50"/></g></g></g><rect x="58.5001" y="323.5" width="176" height="139" stroke="#2F528F" stroke-width="2.66667" stroke-miterlimit="8" fill="none"/><text font-family="Calibri,Calibri_MSFontService,sans-serif" font-weight="400" font-size="24" transform="translate(101.964 400)">Get Data</text><path d="M234.5 391.167 379.833 391.167 379.833 393.833 234.5 393.833ZM378.5 388.5 386.5 392.5 378.5 396.5Z" fill="#4472C4"/><rect x="386.5" y="323.5" width="176" height="139" stroke="#2F528F" stroke-width="2.66667" stroke-miterlimit="8" fill="none"/><text font-family="Calibri,Calibri_MSFontService,sans-serif" font-weight="400" font-size="24" transform="translate(412.133 371)">Locate Likely <tspan font-size="24" x="19.3" y="29">Property</tspan><tspan font-size="24" x="6.52667" y="58">Boundaries</tspan></text><path d="M562.5 391.167 707.833 391.167 707.833 393.833 562.5 393.833ZM706.5 388.5 714.5 392.5 706.5 396.5Z" fill="#4472C4"/><rect x="714.5" y="328.5" width="175" height="139" stroke="#2F528F" stroke-width="2.66667" stroke-miterlimit="8" fill="none"/><rect x="688.5" y="513.5" width="227" height="118" stroke="#2F528F" stroke-width="2.66667" stroke-miterlimit="8" fill="none"/><text font-family="Calibri,Calibri_MSFontService,sans-serif" font-weight="400" font-size="24" transform="translate(732.569 557)">Land Classifier<tspan font-size="19" x="-18.4467" y="24">(road, water, crop, etc.)</tspan></text><path d="M1.33333-3.06863e-06 1.33342 38.9507-1.33324 38.9507-1.33333 3.06863e-06ZM4.00009 37.6173 0.000104987 45.6173-3.99991 37.6173Z" fill="#4472C4" transform="matrix(1 0 0 -1 801.5 513.117)"/><rect x="1038.5" y="328.5" width="176" height="139" stroke="#2F528F" stroke-width="2.66667" stroke-miterlimit="8" fill="none"/><text font-family="Calibri,Calibri_MSFontService,sans-serif" font-weight="400" font-size="24" transform="translate(739.337 185)">Vegetation &amp;<tspan font-size="24" x="-13.0267" y="29">Non</tspan><tspan font-size="24" x="27.8067" y="29">-</tspan><tspan font-size="24" x="35.14" y="29">Permeable </tspan><tspan font-size="24" x="27.3" y="58">Surface </tspan><tspan font-size="24" x="6.23334" y="87">Coefficients</tspan></text><rect x="688.5" y="163.5" width="227" height="118" stroke="#2F528F" stroke-width="2.66667" stroke-miterlimit="8" fill="none"/><path d="M802.833 281.5 802.833 321.221 800.167 321.221 800.167 281.5ZM805.5 319.887 801.5 327.887 797.5 319.887Z" fill="#4472C4"/><path d="M9.40118e-07-1.33333 142.232-1.33323 142.232 1.33343-9.40118e-07 1.33333ZM140.899-3.9999 148.899 0.000104987 140.899 4.0001Z" fill="#4472C4" transform="matrix(1 0 0 -1 889.5 397.5)"/><text font-family="Calibri,Calibri_MSFontService,sans-serif" font-weight="400" font-size="24" transform="translate(730.598 390)">Calculate Land <tspan font-size="24" x="34.4467" y="29">Change</tspan><tspan font-size="24" x="318.616" y="15">Detect Changes</tspan></text><rect x="7.50005" y="4.50005" width="1266" height="712" stroke="#333F50" stroke-width="9" stroke-miterlimit="8" fill="none"/><text fill="#FFFFFF" font-family="Calibri,Calibri_MSFontService,sans-serif" font-weight="400" font-size="24" transform="translate(600.152 367)">#f75814</text></g></svg>