<svg width="1280" height="720" xmlns="http://www.w3.org/2000/svg" xmlns:xlink="http://www.w3.org/1999/xlink" overflow="hidden"><defs><clipPath id="clip0"><rect x="0" y="0" width="1280" height="720"/></clipPath><clipPath id="clip1"><rect x="66" y="246" width="1148" height="228"/></clipPath><clipPath id="clip2"><rect x="66" y="246" width="1148" height="228"/></clipPath><clipPath id="clip3"><rect x="66" y="246" width="1148" height="228"/></clipPath></defs><g clip-path="url(#clip0)"><rect x="0" y="0" width="1280" height="720" fill="#FFFFFF"/><g clip-path="url(#clip1)"><g clip-path="url(#clip2)"><g clip-path="url(#clip3)"><path d="M249.966 237.537C220.981 232.891 195.643 214.2 183.076 188.194 170.899 162.998 170.899 137.87 183.076 112.674 193.981 90.1095 213.443 73.6656 238.205 66.0946 251.49 62.0328 274.441 62.0328 287.726 66.0946 319.517 75.8149 343.823 101.996 350.171 133.359 354.031 152.43 351.703 169.887 342.855 188.194 328.426 218.051 300.058 236.474 266.679 237.668 259.53 237.923 252.009 237.864 249.966 237.537ZM277.79 233.301C287.841 231.67 299.698 226.991 309.655 220.726 318.41 215.217 332.759 200.329 337.018 192.336L339.883 186.956 336.399 190.834C334.482 192.967 329.85 198.488 326.104 203.105 317.913 213.202 303.82 223.001 303.82 218.599 303.82 217.958 304.44 217.051 305.198 216.582 305.957 216.114 307.699 213.156 309.07 210.009 310.441 206.863 313.543 201.052 315.961 197.096 319.969 190.538 320.232 189.554 318.932 185.953 318.147 183.781 317.827 180.776 318.221 179.275 318.789 177.106 318.297 176.385 315.826 175.765 314.116 175.335 311.69 175.522 310.435 176.18 306.207 178.394 300.398 176.437 295.673 171.207 291.751 166.867 291.292 165.702 291.944 161.751 292.354 159.271 292.848 155.349 293.044 153.035 293.302 149.967 294.644 147.749 297.99 144.856 300.515 142.673 302.582 140.336 302.582 139.662 302.582 137.062 307.217 134.502 314.261 133.211 323.332 131.548 322.788 131.518 321.977 133.631 321.57 134.693 322.962 136.665 325.476 138.582 330.22 142.201 332.294 142.605 332.294 139.911 332.294 137.494 334.351 137.524 335.715 139.962 337.424 143.015 340.961 140.806 340.961 136.684 340.961 134.001 340.375 133.102 338.629 133.102 337.346 133.102 336.031 132.083 335.705 130.838 334.983 128.074 337.815 123.876 339.641 125.004 340.367 125.453 340.943 125.091 340.921 124.199 340.859 121.606 337.779 118.246 335.464 118.246 333.754 118.246 333.493 118.96 334.133 121.874 334.76 124.731 334.405 125.783 332.457 126.825 330.416 127.917 329.847 127.714 329.195 125.66 328.204 122.536 321.152 118.534 321.152 121.095 321.152 122.236 320.016 122.602 317.581 122.245 314.406 121.779 313.762 122.279 311.793 126.743 310.574 129.505 308.892 132.028 308.056 132.349 305.151 133.464 301.313 131.552 300.578 128.624 299.437 124.077 300.848 121.96 305.019 121.96 309.318 121.96 309.852 120.381 306.375 117.945 304.005 116.285 304.005 116.25 306.375 114.77 307.693 113.947 308.772 112.625 308.772 111.833 308.772 109.44 312.6 105.987 314.463 106.701 315.421 107.07 317.536 107.037 319.162 106.629 321.419 106.062 322.235 104.875 322.617 101.601 323.064 97.7736 322.78 97.275 319.969 96.9476 317.623 96.6743 316.517 95.5536 315.635 92.557 314.983 90.3438 314.008 88.533 313.468 88.533 311.435 88.533 312.582 95.6644 314.962 97.8186 316.324 99.0506 317.438 100.846 317.438 101.809 317.438 103.153 316.648 102.996 314.033 101.134 310.694 98.756 309.937 98.4376 307.623 98.4376 306.589 98.4376 306.682 83.9951 307.722 82.9981 308.427 82.323 316.586 86.6131 316.062 87.3837 315.4 88.3576 319.872 92.7025 320.693 91.8814 322.307 90.2671 317.848 85.4797 310.233 80.6528 300.714 74.6194 295.154 72.0142 295.154 73.5876 295.154 74.1903 293.915 74.3595 292.402 73.9632 288.802 73.0222 283.039 70.0024 284.63 69.8923 285.311 69.8448 284.476 69.244 282.774 68.5568 277.73 66.5219 253.061 65.5699 253.061 67.41 253.061 68.5117 254.452 68.7071 258.013 68.1057 264.753 66.9669 272.914 68.4064 272.078 70.5856 271.722 71.5132 272.899 73.2121 274.726 74.41 277.582 76.2811 277.749 76.7139 275.993 77.697 274.472 78.5479 274.309 79.2376 275.336 80.4744 276.377 81.729 276.034 82.5878 273.891 84.0883 272.345 85.1711 270.437 86.0574 269.65 86.0574 268.864 86.0574 267.527 86.8925 266.679 87.9139 265.831 88.9353 264.159 89.771 262.964 89.771 261.715 89.771 260.135 91.3524 259.251 93.4853 256.956 99.0257 252.566 98.5576 249.445 92.4396 247.164 87.9687 247.144 87.5511 249.111 85.5637 251.078 83.5745 251.065 83.4996 248.894 84.3208 246.908 85.0713 246.718 84.7779 247.533 82.2208 249.26 76.8022 248.865 75.5495 245.303 75.1404 243.418 74.9237 242.198 74.2274 242.59 73.5925 242.982 72.9583 242.739 72.439 242.05 72.439 239.927 72.439 234.49 75.2524 234.49 76.3517 234.49 76.9233 233.237 77.4303 231.705 77.4778 229.654 77.5417 229.42 77.787 230.818 78.4067 234.799 80.1713 238.443 83.4321 237.727 84.5904 237.316 85.2545 237.876 86.1414 238.97 86.5608 240.589 87.1823 240.672 87.671 239.418 89.1818 238.295 90.5343 237.442 90.6798 236.281 89.7156 235.05 88.6943 234.831 88.9463 235.32 90.8192 236.188 94.1372 230.992 95.9103 228.877 93.0178 228.07 91.913 226.634 90.9963 225.688 90.9811 224.741 90.9653 225.785 90.0565 228.008 88.9615 231.21 87.3831 231.756 86.6186 230.641 85.2752 228.616 82.835 225.426 83.191 223.635 86.0574 222.785 87.419 221.199 88.533 220.112 88.533 217.398 88.533 208.493 95.7576 207.286 98.9386 206.135 101.971 207.845 104.627 210.948 104.627 212.577 104.627 212.957 105.381 212.509 107.723 211.759 111.648 214.351 111.851 215.822 107.981 216.415 106.421 217.705 104.477 218.688 103.661 219.672 102.845 220.381 100.584 220.265 98.6361 220.075 95.4368 220.423 95.1069 223.868 95.2183 226.558 95.3059 227.686 95.9554 227.697 97.4217 227.72 100.496 229.235 101.469 231.312 99.7451 233.557 97.8813 236.16 99.2417 235.189 101.772 234.74 102.942 235.384 103.855 236.948 104.264 238.304 104.619 239.11 105.403 238.737 106.006 238.363 106.61 238.927 107.104 239.989 107.104 241.05 107.104 241.919 107.593 241.919 108.191 241.919 109.697 235.138 112.365 231.312 112.365 229.055 112.365 228.352 112.88 228.846 114.169 229.227 115.161 229.539 116.495 229.539 117.133 229.539 117.771 231.071 117.966 232.943 117.566 236.127 116.886 236.199 116.96 234.061 118.696 232.803 119.716 230.992 120.252 230.037 119.885 229.082 119.519 228.3 119.818 228.3 120.55 228.3 121.283 227.585 121.608 226.709 121.272 225.835 120.936 224 121.65 222.633 122.858 221.266 124.066 218.5 125.998 216.487 127.15 214.362 128.365 212.81 130.296 212.789 131.749 212.769 133.127 211.119 135.958 209.124 138.041 205.846 141.461 205.63 142.184 206.887 145.512 207.651 147.539 207.823 149.196 207.268 149.196 206.712 149.196 205.665 147.495 204.941 145.416 203.717 141.908 203.258 141.668 198.58 142.105 191.351 142.779 189.41 145.18 190.455 152.154 191.44 158.723 192.927 160.126 195.978 157.365 199.202 154.447 200.225 154.94 199.409 159.021 198.794 162.095 199.103 162.715 201.413 163.044 203.324 163.317 204.331 164.512 204.77 167.025 205.128 169.074 206.46 171.03 207.873 171.58 209.321 172.144 209.611 172.581 208.572 172.632 207.594 172.68 205.526 171.527 203.976 170.071 202.425 168.614 200.101 166.803 198.812 166.047 189.988 160.873 186.191 157.554 185.555 154.457 183.909 146.438 182.163 141.261 180.564 139.662 179.107 138.206 178.729 138.442 178.024 141.253 176.639 146.772 178.461 165.386 181.286 174.576 188.761 198.887 207.804 219.216 232.015 228.728 236.441 230.466 242.011 232.278 244.395 232.754L248.728 233.619 243.49 229.697C239.69 226.851 237.878 224.385 236.889 220.714 236.14 217.931 234.803 214.49 233.918 213.067 233.033 211.643 231.976 209.036 231.569 207.274 231.06 205.068 229.279 203.37 225.851 201.825 223.113 200.59 220.873 198.967 220.873 198.22 220.873 197.472 218.912 195.296 216.516 193.384 212.247 189.979 212.172 189.763 212.769 182.604 213.11 178.499 212.849 174.974 212.172 174.555 210.161 173.311 210.793 172.118 214.682 169.821 218.248 167.715 218.397 167.716 218.415 169.863 218.426 171.211 218.795 171.567 219.343 170.758 220.941 168.401 229.915 169.381 232.755 172.221 234.183 173.649 237.526 175.167 240.183 175.595 245.484 176.446 249.47 180.598 246.194 181.855 242.633 183.222 244.496 184.641 249.347 184.258 252.071 184.042 254.299 184.404 254.299 185.062 254.299 185.721 255.096 185.953 256.069 185.58 258.372 184.697 266.679 188.642 266.679 190.62 266.679 191.458 265.565 193.152 264.203 194.385 262.841 195.617 261.727 197.825 261.727 199.292 261.727 202.679 259.309 205.817 256.289 206.351 253.832 206.784 253.021 207.901 250.363 214.503 249.413 216.86 247.858 218.526 246.608 218.526 245.219 218.526 244.721 219.175 245.185 220.383 245.577 221.405 245.284 222.24 244.535 222.24 240.637 222.24 246.667 231.665 251.875 233.714 254.905 234.907 269.309 234.677 277.79 233.301ZM216.222 159.511C213.989 158.618 215.613 156.625 218.572 156.625 219.957 156.625 220.859 157.283 220.589 158.095 220.008 159.838 218.37 160.369 216.222 159.511ZM210.729 156.525C210.483 155.789 208.347 154.732 205.983 154.175L201.683 153.164 206.016 153.077C210.35 152.989 215.357 155.537 213.838 157.056 212.627 158.267 211.23 158.028 210.729 156.525ZM331.676 130.626C331.255 129.945 331.5 129.388 332.221 129.388 332.943 129.388 333.532 129.945 333.532 130.626 333.532 131.307 333.287 131.864 332.986 131.864 332.686 131.864 332.096 131.307 331.676 130.626ZM240.371 117.359C238.499 117.075 236.966 116.429 236.966 115.924 236.966 114.275 240.6 110.143 240.641 111.746 240.663 112.597 241.516 113.293 242.538 113.293 243.57 113.293 244.395 114.394 244.395 115.77 244.395 117.131 244.256 118.162 244.085 118.06 243.915 117.959 242.244 117.643 240.371 117.359ZM302.435 110.508C302.354 109.657 302.381 108.257 302.493 107.396 302.606 106.536 301.88 105.518 300.879 105.135 298.327 104.155 297.288 100.913 299.526 100.913 300.526 100.913 301.344 101.495 301.344 102.205 301.344 102.916 302.737 104.999 304.439 106.835 306.141 108.671 307.534 110.597 307.534 111.114 307.534 112.73 302.59 112.142 302.435 110.508ZM295.897 108.837C295.443 107.656 295.629 106.132 296.311 105.452 297.136 104.626 297.823 104.929 298.373 106.361 298.826 107.542 298.639 109.065 297.958 109.746 297.134 110.571 296.446 110.268 295.897 108.837ZM217.777 91.0091C218.198 90.3286 219.067 89.771 219.707 89.771 220.348 89.771 220.873 90.3286 220.873 91.0091 220.873 91.6903 220.004 92.2472 218.942 92.2472 217.881 92.2472 217.357 91.6903 217.777 91.0091ZM277.821 90.7413C277.821 89.7978 279.034 89.1234 280.607 89.1922 284.493 89.3626 284.762 91.5442 280.955 92.0202 278.957 92.2697 277.821 91.8065 277.821 90.7413ZM227.681 86.0574C228.102 85.3763 228.692 84.8193 228.993 84.8193 229.293 84.8193 229.539 85.3763 229.539 86.0574 229.539 86.7379 228.949 87.2949 228.227 87.2949 227.506 87.2949 227.261 86.7379 227.681 86.0574ZM345.759 159.086C344.409 148.459 343.044 143.907 341.005 143.227 339.79 142.823 339.592 143.312 340.288 145.004 342.484 150.351 343.602 157.589 343.037 162.807 342.706 165.867 343.036 169.488 343.77 170.854 345.056 173.245 345.137 173.222 345.942 170.228 346.403 168.517 346.32 163.504 345.759 159.086ZM348.057 145.173C347.797 142.279 347.583 144.647 347.583 150.434 347.583 156.222 347.797 158.59 348.057 155.696 348.318 152.802 348.318 148.066 348.057 145.173ZM346.733 134.031C346.389 133.18 346.109 133.876 346.109 135.578 346.109 137.28 346.389 137.977 346.733 137.126 347.076 136.275 347.076 134.881 346.733 134.031ZM218.562 83.0693C220.61 80.5408 220.633 80.5603 219.959 84.2051 219.285 87.8555 219.314 87.8786 221.796 85.6776 224.539 83.244 224.28 79.2516 221.305 78.1096 220.3 77.7237 219.84 77.9593 220.262 78.6429 220.678 79.3161 220.169 79.867 219.132 79.867 218.094 79.867 216.649 80.9815 215.92 82.3431 215.159 83.7657 213.328 84.8193 211.617 84.8193 209.979 84.8193 208.314 85.3434 207.918 85.9837 206.461 88.3418 216.523 85.5863 218.562 83.0693ZM228.66 76.1515C229.016 74.7886 228.803 73.9857 228.185 74.3674 227.568 74.749 227.062 75.8636 227.062 76.8448 227.062 79.4074 227.904 79.0422 228.66 76.1515ZM225.489 76.6427C225.078 76.2318 224.01 76.1874 223.116 76.5453 222.129 76.9403 222.422 77.2337 223.864 77.2934 225.169 77.347 225.9 77.0542 225.489 76.6427ZM72.5912 233.384C52.5214 230.383 37.098 213.963 31.8899 190.051 28.9883 176.729 29.0472 148.855 32.0011 137.435 38.8779 110.851 52.7924 96.2305 75.1356 92.1133 89.6091 89.4466 103.395 93.4524 116.569 104.153L120.592 107.421 120.592 73.4531C120.592 46.0711 120.933 39.0195 122.35 37.0823 123.912 34.9461 125.679 34.6791 138.254 34.6791 148.424 34.6791 152.976 35.1566 154.447 36.3782 156.32 37.9317 156.495 46.2208 156.495 133.102 156.495 218.96 156.303 228.286 154.501 229.782 153.17 230.886 148.889 231.436 141.639 231.436 127.733 231.436 126.782 230.704 126.782 219.989L126.782 211.85 122.759 215.681C116.124 221.999 104.631 229.431 98.4973 231.369 90.849 233.786 80.6102 234.582 72.5912 233.384ZM101.42 201.358C104.153 200.117 109.584 195.827 113.49 191.827L120.592 184.553 120.592 162.293 120.592 140.033 113.13 132.776C104.528 124.411 99.5516 121.96 91.1674 121.96 80.1037 121.96 71.288 130.637 67.3637 145.39 63.5375 159.777 66.7392 185.442 73.5536 195.012 79.6557 203.581 90.8923 206.14 101.42 201.358ZM422.346 231.074C419.105 230.577 415.563 229.282 414.477 228.195 412.112 225.83 378.32 111.727 377.271 102.564L376.539 96.1672 381.344 94.8336C387.438 93.1408 400.85 93.1122 406.851 94.7788 412.332 96.3011 411.036 92.6258 427.075 152.125 434.544 179.832 438.344 192.078 438.984 190.504 439.501 189.234 444.709 169.253 450.555 146.102 464.331 91.5521 462.643 96.2969 468.875 94.6035 476.46 92.5424 492.991 93.8864 495.702 96.7844 496.959 98.1272 502.771 117.535 509.916 144.244 520.659 184.404 524.024 195.707 524.151 192.059 524.184 191.103 546.821 103.662 548.461 98.1552 549.441 94.8652 558.136 93.1164 569.922 93.8383 582.319 94.598 583.802 95.7831 582.284 103.713 581.731 106.599 573.47 135.423 563.927 167.767 551 211.578 545.929 227.099 544.041 228.635 538.456 233.176 505.861 232.585 502.42 227.88 501.637 226.809 498.875 218.277 496.282 208.92 493.689 199.564 488.705 181.643 485.206 169.098L478.843 146.287 472.479 170.955C468.979 184.522 464.339 202.764 462.169 211.493 459.134 223.7 457.608 227.768 455.555 229.112 452.406 231.176 431.18 232.43 422.346 231.074ZM613.943 231.088C611.222 230.6 608.297 229.769 607.445 229.242 605.032 227.748 605.207 98.0767 607.624 96.0698 611.891 92.529 631.242 93.0044 634.979 96.7424 636.233 97.9988 636.848 101.068 636.848 106.078L636.848 113.542 643.836 107.155C666.059 86.8463 697.669 86.0251 714.645 105.315 725.425 117.559 727.227 129.098 727.227 185.907 727.227 219.968 726.923 227.32 725.45 228.792 723.161 231.079 710.677 232.488 702.234 231.412 690.474 229.915 691.484 234.191 691.07 184.158 690.717 141.703 690.596 139.674 688.003 134.063 685.008 127.58 679.95 123.795 672.627 122.558 665.968 121.433 657.586 125.497 648.918 134.047L641.803 141.072 641.803 184.707C641.803 225.699 641.663 228.416 639.538 229.553 636.464 231.198 620.048 232.183 613.943 231.088ZM769.276 231.002C766.871 230.531 764.223 229.726 763.396 229.214 762.233 228.497 761.892 206.519 761.892 133.221 761.892 21.5726 759.817 33.6321 779.021 33.5232 788.577 33.4691 791.81 33.913 794.451 35.643L797.793 37.8312 797.775 132.202C797.763 184.537 797.27 227.341 796.661 228.297 794.719 231.362 779.021 232.912 769.276 231.002ZM841.083 231.082C838.673 230.567 836.025 229.726 835.197 229.214 834.047 228.503 833.694 212.873 833.694 162.785 833.694 88.5171 832.574 95.6139 844.559 94.0246 853.477 92.8413 864.336 94.4111 867.221 97.3012 869.503 99.5789 869.595 102.227 869.595 162.678 869.595 236.805 870.867 230.664 855.357 231.491 849.916 231.782 843.488 231.598 841.083 231.082ZM912.928 231.301C903.73 230.052 904.26 234.26 904.26 162.711 904.26 107.161 904.51 98.3646 906.135 96.7424 909.872 93.0044 929.223 92.529 933.49 96.0698 934.634 97.0243 935.212 100.171 935.212 105.497L935.212 113.492 942.334 107.136C967.309 84.8345 1002.11 86.3703 1017.31 110.444 1024.47 121.793 1024.78 124.471 1025.29 178.51 1025.83 235.028 1026.86 229.86 1014.68 231.412 1006.23 232.488 993.75 231.079 991.462 228.792 989.989 227.317 989.684 219.798 989.684 184.613 989.684 137.697 989.124 133.501 982.088 127.581 977.644 123.841 969.963 121.605 965.282 122.69 959.444 124.044 952.116 128.885 946.004 135.421L940.167 141.662 940.167 185.003C940.167 225.709 940.027 228.417 937.903 229.553 935.2 230.999 919.039 232.13 912.928 231.301ZM1068.92 231.307C1059.57 230.023 1060.25 237.87 1060.25 132.319L1060.25 37.8309 1063.59 35.6427C1066.22 33.9185 1069.44 33.4711 1078.76 33.533 1085.51 33.5778 1091.77 34.255 1093.36 35.1106L1096.13 36.6096 1096.46 93.2126 1096.77 149.815 1116.99 122.888C1131.75 103.22 1138.1 95.7101 1140.51 95.032 1142.33 94.5219 1149.44 94.1043 1156.32 94.1043 1170.21 94.1043 1172.91 95.2243 1172.91 100.97 1172.91 104.892 1172.51 105.423 1149.41 131.744 1140.21 142.231 1132.81 151.254 1132.97 151.792 1133.12 152.332 1142.37 166.87 1153.51 184.102 1175.51 218.113 1177.86 222.143 1177.86 225.741 1177.86 230.414 1174.61 231.454 1159.86 231.491 1147.62 231.521 1145.43 231.204 1142.44 228.974 1140.56 227.57 1129.52 211.488 1117.9 193.235L1096.77 160.048 1096.44 194.206C1096.13 226.529 1095.99 228.433 1093.72 229.646 1090.95 231.129 1075.27 232.179 1068.92 231.307ZM837.547 73.1871C832.988 70.661 831.308 66.3983 831.265 57.2115 831.186 42.3005 835.672 38.3479 852.563 38.4525 860.221 38.4999 862.832 39.0211 865.565 41.0468 874.939 48.0064 873.381 70.0146 863.258 73.5426 857.829 75.4363 841.187 75.2068 837.547 73.1871ZM322.233 43.0358C320.755 41.1515 320.775 41.0535 322.39 42.2835 323.412 43.0614 325.362 43.9717 326.723 44.3065 329.075 44.8845 329.068 44.9223 326.565 45.0587 325.117 45.1377 323.167 44.2273 322.233 43.0358ZM324.256 41.5024C323.822 40.8006 324.319 40.5931 325.421 41.0159 327.566 41.8389 327.958 42.7262 326.177 42.7262 325.536 42.7262 324.672 42.1755 324.256 41.5024ZM326.692 36.636C327.235 34.924 326.72 34.0294 324.85 33.4358 321.316 32.3143 322.367 30.0011 327.125 28.4266 329.595 27.6095 330.623 26.6893 329.89 25.9505 328.234 24.2797 333.612 14.1159 336.771 12.9474 340.859 11.4351 342.661 13.4004 341.837 18.4735 341.439 20.9318 340.243 23.8129 339.179 24.876 338.116 25.939 337.247 27.3911 337.247 28.1028 337.247 28.8145 336.139 29.107 334.784 28.7528 332.501 28.1559 332.456 28.3012 334.165 30.7409 335.179 32.1886 336.008 34.4075 336.008 35.6719 336.008 37.5823 335.381 37.833 332.294 37.1551 329.957 36.6419 328.581 36.835 328.581 37.6758 328.581 38.4108 327.986 39.0122 327.259 39.0122 326.52 39.0122 326.269 37.9658 326.692 36.636ZM345.708 30.3156C341.492 28.0882 341.273 27.6985 342.613 24.8089 344.247 21.2873 345.034 21.0274 347.401 23.2273 348.318 24.0785 349.889 24.954 350.894 25.1729 354.036 25.8568 354.86 27.5072 353.412 30.2131 351.731 33.3536 351.466 33.3571 345.708 30.3156ZM350.119 27.6636C349.767 27.0962 348.957 26.632 348.316 26.632 347.675 26.632 347.151 27.0962 347.151 27.6636 347.151 28.2311 347.962 28.6953 348.954 28.6953 349.945 28.6953 350.469 28.2311 350.119 27.6636ZM321.857 18.1313C318.16 15.9619 316.217 13.0137 318.485 13.0137 319.174 13.0137 320.546 13.8228 321.536 14.8118 323.335 16.6117 324.866 16.1647 324.866 13.839 324.866 13.1581 324.514 12.9528 324.085 13.3828 323.654 13.8128 322.202 13.5754 320.857 12.8554 319.245 11.9929 318.828 11.1288 319.634 10.3226 321.207 8.74994 331.468 13.8215 330.356 15.6216 329.923 16.3228 328.649 16.547 327.527 16.1198 325.891 15.4972 325.793 15.6524 327.033 16.902 330.832 20.7291 327.594 21.4982 321.857 18.1313Z" fill="#333F50" transform="matrix(1 0 0 1.00153 36.2508 235.96)"/></g></g></g></g></svg>